<?xml version="1.0" encoding="utf-8"?>
<!-- Generator: Adobe Illustrator 16.0.0, SVG Export Plug-In . SVG Version: 6.00 Build 0)  -->
<!DOCTYPE svg PUBLIC "-//W3C//DTD SVG 1.1//EN" "http://www.w3.org/Graphics/SVG/1.1/DTD/svg11.dtd">
<svg version="1.1" id="Layer_1" xmlns="http://www.w3.org/2000/svg" xmlns:xlink="http://www.w3.org/1999/xlink" x="0px" y="0px"
	 width="144px" height="128.16px" viewBox="0 0 144 128.16" enable-background="new 0 0 144 128.16" xml:space="preserve">
<path fill-rule="evenodd" clip-rule="evenodd" fill="#6D6D6D" d="M53.753,126.708c-0.899-0.07-1.921,0.099-2.665-0.278
	c-0.752-0.382-1.458-1.215-1.771-2.013c-0.472-1.202-0.577-2.545-0.849-3.825c-0.241-1.134-0.894-1.787-2.084-2.004
	c-2.44-0.442-4.868-0.959-7.294-1.474c-1.102-0.233-1.961,0.064-2.59,0.999c-0.682,1.013-1.341,2.042-2.036,3.046
	c-0.955,1.38-2.1,1.804-3.637,1.239c-3.495-1.284-6.548-3.267-9.088-5.998c-1.145-1.23-1.227-2.396-0.331-3.828
	c0.647-1.035,1.342-2.041,2.031-3.049c0.704-1.03,0.617-1.978-0.101-2.997c-1.376-1.957-2.703-3.95-3.992-5.965
	c-0.639-1-1.452-1.451-2.617-1.232c-1.242,0.233-2.483,0.479-3.724,0.72c-1.36,0.263-2.554-0.234-3.177-1.491
	c-1.739-3.514-2.475-7.265-2.307-11.165c0.06-1.39,0.914-2.326,2.335-2.629c1.282-0.271,2.565-0.529,3.848-0.798
	c1.17-0.244,1.72-0.998,1.924-2.153c0.408-2.308,0.828-4.618,1.363-6.898c0.313-1.337,0-2.292-1.137-3.025
	c-0.988-0.638-1.973-1.282-2.931-1.964c-1.326-0.944-1.681-2.031-1.138-3.545c1.244-3.465,3.214-6.469,5.878-9.006
	c1.259-1.2,2.555-1.288,4.059-0.334c0.993,0.629,1.976,1.276,2.945,1.941c1.038,0.712,1.975,0.601,2.993-0.115
	c1.956-1.377,3.952-2.699,5.967-3.989c1.051-0.672,1.468-1.552,1.227-2.756c-0.222-1.107-0.477-2.208-0.691-3.316
	c-0.34-1.75,0.224-2.905,1.828-3.64c3.214-1.473,6.611-2.147,10.136-2.135c2.052,0.006,2.957,0.803,3.378,2.799
	c0.242,1.148,0.465,2.301,0.718,3.448c0.242,1.097,0.934,1.656,2.052,1.855c2.398,0.427,4.793,0.886,7.165,1.433
	c1.185,0.273,2.042-0.029,2.704-0.989c0.692-1.006,1.345-2.039,2.043-3.041c0.957-1.375,2.092-1.775,3.644-1.207
	c3.498,1.281,6.537,3.28,9.075,6.012c1.067,1.147,1.178,2.391,0.356,3.721c-0.642,1.038-1.325,2.052-2.02,3.057
	c-0.74,1.072-0.668,2.046,0.091,3.112c1.335,1.875,2.639,3.779,3.837,5.743c0.714,1.17,1.606,1.658,2.925,1.4
	c1.151-0.224,2.301-0.468,3.451-0.698c1.438-0.289,2.647,0.216,3.285,1.534c1.726,3.57,2.498,7.351,2.221,11.313
	c-0.094,1.328-0.963,2.112-2.22,2.417c-1.229,0.297-2.469,0.566-3.716,0.77c-1.326,0.217-1.912,1.031-2.144,2.271
	c-0.438,2.348-0.91,4.688-1.379,7.032c-0.226,1.126,0.015,2.055,1.028,2.713c1.024,0.665,2.046,1.335,3.049,2.032
	c1.294,0.9,1.719,2.059,1.186,3.548c-1.273,3.552-3.304,6.627-6.067,9.2c-1.026,0.955-2.411,1.07-3.626,0.326
	c-1.079-0.661-2.124-1.38-3.173-2.09c-1.03-0.696-1.981-0.627-3.003,0.09c-1.959,1.373-3.956,2.694-5.964,3.994
	c-1.021,0.661-1.528,1.465-1.24,2.721c0.282,1.231,0.518,2.479,0.693,3.729c0.226,1.616-0.319,2.584-1.808,3.256
	C59.839,125.81,56.878,126.562,53.753,126.708z M31.173,84.808c-0.02,10.027,8.064,18.167,18.062,18.184
	c10.03,0.017,18.236-8.086,18.252-18.022c0.017-10.092-8.078-18.222-18.159-18.241C39.295,66.709,31.194,74.777,31.173,84.808z"/>
<path fill-rule="evenodd" clip-rule="evenodd" fill="#B7B7B7" d="M137.886,35.05c-0.226,1.938-0.39,3.832-0.685,5.705
	c-0.278,1.773-1.166,2.447-2.981,2.462c-0.633,0.006-1.27-0.044-1.899-0.007c-1.278,0.074-2.131,0.706-2.767,1.86
	c-1.412,2.564-2.907,5.084-4.445,7.574c-0.688,1.115-0.843,2.164-0.203,3.311c0.11,0.197,0.226,0.392,0.337,0.588
	c1.679,2.942,1.673,3.657-1.193,5.569c-2.649,1.769-5.502,3.271-8.384,4.644c-2.119,1.009-3.056,0.511-4.197-1.534
	c-0.264-0.474-0.516-0.958-0.815-1.408c-0.69-1.035-1.675-1.393-2.911-1.372c-2.793,0.047-5.591,0.093-8.379-0.03
	c-1.634-0.072-2.827,0.369-3.59,1.841c-0.228,0.441-0.486,0.867-0.741,1.296c-0.824,1.388-1.768,1.776-3.299,1.265
	c-3.736-1.249-7.082-3.197-10.046-5.783c-1.395-1.216-1.525-2.245-0.619-3.824c0.316-0.55,0.641-1.093,0.952-1.644
	c0.622-1.098,0.474-2.114-0.164-3.19c-1.516-2.557-2.977-5.147-4.403-7.754c-0.625-1.141-1.467-1.832-2.794-1.771
	c-4.087,0.186-4.71-0.387-4.965-4.837c-0.164-2.867,0.036-5.77,0.279-8.639c0.189-2.222,1.007-2.795,3.187-2.798
	c0.589-0.001,1.18,0.026,1.766-0.019c1.277-0.097,2.102-0.75,2.729-1.909c1.351-2.495,2.786-4.95,4.309-7.343
	c0.794-1.246,1.018-2.38,0.212-3.65c-0.072-0.114-0.128-0.239-0.198-0.355c-1.516-2.512-2.16-3.431,1.309-5.759
	c2.606-1.75,5.444-3.193,8.294-4.525c2.092-0.977,2.964-0.508,4.104,1.471c0.271,0.47,0.525,0.951,0.816,1.409
	c0.701,1.102,1.708,1.457,3.007,1.426c2.747-0.066,5.501-0.094,8.244,0.035c1.617,0.077,2.846-0.279,3.625-1.766
	c0.272-0.52,0.602-1.011,0.894-1.521c0.687-1.2,1.731-1.583,2.998-1.169c3.878,1.264,7.34,3.284,10.392,5.982
	c1.232,1.091,1.328,2.156,0.501,3.637c-0.221,0.395-0.426,0.802-0.681,1.172c-1.018,1.471-0.776,2.758,0.199,4.232
	c1.44,2.174,2.717,4.474,3.871,6.814c0.729,1.481,1.662,2.309,3.336,2.212c0.497-0.029,0.996-0.011,1.493,0
	c1.622,0.037,2.591,0.77,2.833,2.346C137.506,31.208,137.669,33.147,137.886,35.05z M103.6,19.204
	c-8.624-0.014-15.675,6.948-15.736,15.54c-0.062,8.664,6.973,15.8,15.595,15.817c8.783,0.019,15.843-6.949,15.883-15.677
	C119.381,26.285,112.286,19.218,103.6,19.204z"/>
<path fill-rule="evenodd" clip-rule="evenodd" fill="#FFFFFF" d="M33.514,83.669c0.019-9.465,7.664-17.078,17.132-17.061
	c9.513,0.019,17.151,7.69,17.136,17.213c-0.015,9.377-7.758,17.022-17.223,17.007C41.124,100.812,33.495,93.132,33.514,83.669z"/>
<path fill-rule="evenodd" clip-rule="evenodd" fill="#FFFFFF" d="M101.857,21.763c8.197,0.014,14.892,6.682,14.854,14.796
	c-0.038,8.235-6.7,14.811-14.988,14.793c-8.136-0.017-14.774-6.75-14.716-14.926C87.066,28.319,93.72,21.75,101.857,21.763z"/>
</svg>
