<?xml version="1.0" encoding="utf-8"?>
<!-- Generator: Adobe Illustrator 16.0.0, SVG Export Plug-In . SVG Version: 6.00 Build 0)  -->
<!DOCTYPE svg PUBLIC "-//W3C//DTD SVG 1.1//EN" "http://www.w3.org/Graphics/SVG/1.1/DTD/svg11.dtd">
<svg version="1.1" id="Layer_1" xmlns="http://www.w3.org/2000/svg" xmlns:xlink="http://www.w3.org/1999/xlink" x="0px" y="0px"
	 width="153.758px" height="128px" viewBox="0 0 153.758 128" enable-background="new 0 0 153.758 128" xml:space="preserve">
<symbol  id="New_Symbol" viewBox="-7.483 -8.131 14.966 16.262">
	<path fill="#FFFFFF" d="M-0.161-2.166c0-1.177-0.954-2.13-2.129-2.13c-1.177,0-2.13,0.953-2.13,2.13s0.954,2.13,2.13,2.13
		C-1.115-0.036-0.161-0.989-0.161-2.166z"/>
	<path fill="#FFFFFF" d="M-4.17,6.527c0-0.887-0.718-1.604-1.604-1.604c-0.885,0-1.604,0.717-1.604,1.604
		c0,0.886,0.718,1.604,1.604,1.604C-4.888,8.131-4.17,7.413-4.17,6.527z"/>
	<path fill="#FFFFFF" d="M5.354-3.343c0-0.392-0.315-0.706-0.705-0.706S3.944-3.733,3.944-3.343c0,0.388,0.315,0.703,0.705,0.703
		S5.354-2.955,5.354-3.343z"/>
	<path fill="#FFFFFF" d="M2.171,0.565c0-0.349-0.281-0.631-0.629-0.631c-0.347,0-0.629,0.282-0.629,0.631
		c0,0.347,0.282,0.629,0.629,0.629C1.89,1.194,2.171,0.912,2.171,0.565z"/>
	<path fill="#FFFFFF" d="M-3.941,1.591c0-0.192-0.159-0.353-0.354-0.353c-0.196,0-0.354,0.159-0.354,0.353
		c0,0.196,0.158,0.354,0.354,0.354C-4.1,1.945-3.941,1.787-3.941,1.591z"/>
	<path fill="#FFFFFF" d="M-6.067-6.2c0-0.391-0.317-0.707-0.708-0.707S-7.483-6.591-7.483-6.2c0,0.392,0.317,0.708,0.708,0.708
		C-6.385-5.492-6.067-5.81-6.067-6.2z"/>
	<path fill="#FFFFFF" d="M-3.045-7.077c0-0.19-0.156-0.348-0.348-0.348c-0.191,0-0.347,0.156-0.347,0.348
		c0,0.193,0.156,0.349,0.347,0.349C-3.202-6.729-3.045-6.884-3.045-7.077z"/>
	<path fill="#FFFFFF" d="M6.021,5.175c0-0.288-0.233-0.521-0.521-0.521S4.979,4.887,4.979,5.175S5.212,5.696,5.5,5.696
		C5.789,5.696,6.021,5.463,6.021,5.175z"/>
	<path fill="#FFFFFF" d="M7.483-6.776c0-0.748-0.606-1.354-1.356-1.354c-0.749,0-1.356,0.606-1.356,1.354
		c0,0.749,0.607,1.356,1.356,1.356S7.483-6.027,7.483-6.776z"/>
	<polygon fill="none" stroke="#FFFFFF" stroke-width="0.1" stroke-miterlimit="10" points="-6.034,6.548 -4.295,1.592 
		-2.291,-2.166 -6.775,-6.2 	"/>
	<polyline fill="none" stroke="#FFFFFF" stroke-width="0.1" stroke-miterlimit="10" points="6.127,-6.776 4.649,-3.344 1.542,0.564 
		5.5,5.175 -5.773,6.527 1.542,0.564 -2.291,-2.166 -3.393,-7.077 6.127,-6.776 -2.291,-2.166 4.649,-3.344 5.5,5.175 	"/>
	<polyline fill="none" stroke="#FFFFFF" stroke-width="0.1" stroke-miterlimit="10" points="6.127,-6.776 5.5,5.175 -4.295,1.592 
		-6.775,-6.2 -3.393,-7.077 	"/>
</symbol>
<g id="Layer_1_1_">
</g>
<g id="Layer_2">
	<g>
		<g>
			<defs>
				<polygon id="SVGID_1_" points="149.229,68.38 154.73,53.896 149.405,33.004 110.468,6.778 85.858,2.5 62.111,2.5 25.833,12.006 
					17.325,20.339 0.301,52.724 2.989,72.277 16.874,79.812 9.708,85.6 11.498,91.7 32.552,109.758 48.679,112.802 46.437,127.5 
					56.736,127.5 65.702,108.995 65.25,103.168 77.682,94.5 99.737,94.5 112.734,80.404 142.746,77.828 				"/>
			</defs>
			<clipPath id="SVGID_2_">
				<use xlink:href="#SVGID_1_"  overflow="visible"/>
			</clipPath>
			<polygon clip-path="url(#SVGID_2_)" fill="#2756D8" points="148.898,69.617 154.325,55.337 149.075,34.726 110.671,7.603 
				86.399,2.123 62.977,2.123 27.195,12.757 18.804,21.607 2.013,53.863 4.664,73.305 18.358,80.816 11.291,86.564 13.057,92.6 
				33.823,110.421 49.728,111.544 47.517,124.159 57.674,124.159 66.518,107.795 66.072,101.387 78.333,92.182 100.088,92.182 
				112.906,79.878 142.505,78.136 			"/>
		</g>
		<g>
			<defs>
				<polygon id="SVGID_3_" points="149.229,68.38 154.73,53.896 149.405,33.004 110.468,6.778 85.858,2.5 62.111,2.5 25.833,12.006 
					17.325,20.339 0.301,52.724 2.989,72.277 16.874,79.812 9.708,85.6 11.498,91.7 32.552,109.758 48.679,112.802 46.437,127.5 
					56.736,127.5 65.702,108.995 65.25,103.168 77.682,94.5 99.737,94.5 112.734,80.404 142.746,77.828 				"/>
			</defs>
			<clipPath id="SVGID_4_">
				<use xlink:href="#SVGID_3_"  overflow="visible"/>
			</clipPath>
			<g clip-path="url(#SVGID_4_)">
				
					<use xlink:href="#New_Symbol"  width="14.966" height="16.262" x="-7.483" y="-8.131" transform="matrix(1.3587 0 0 -1.3587 -154.9551 -22.2632)" overflow="visible"/>
				
					<use xlink:href="#New_Symbol"  width="14.966" height="16.262" x="-7.483" y="-8.131" transform="matrix(1.3254 0.299 0.299 -1.3254 156.0938 93.4805)" overflow="visible"/>
				
					<use xlink:href="#New_Symbol"  width="14.966" height="16.262" x="-7.483" y="-8.131" transform="matrix(1.303 -0.1379 -0.1379 -1.303 151.5811 115.0371)" overflow="visible"/>
				
					<use xlink:href="#New_Symbol"  width="14.966" height="16.262" x="-7.483" y="-8.131" transform="matrix(1.3596 -0.3247 -0.3247 -1.3596 142.8916 76.9199)" overflow="visible"/>
				
					<use xlink:href="#New_Symbol"  width="14.966" height="16.262" x="-7.483" y="-8.131" transform="matrix(1.3108 0.2588 0.2588 -1.3108 16.6025 74.207)" overflow="visible"/>
				
					<use xlink:href="#New_Symbol"  width="14.966" height="16.262" x="-7.483" y="-8.131" transform="matrix(1.1647 -0.5507 -0.5507 -1.1647 7.6768 35.2305)" overflow="visible"/>
				
					<use xlink:href="#New_Symbol"  width="14.966" height="16.262" x="-7.483" y="-8.131" transform="matrix(-0.6139 -1.6414 -1.6414 0.6139 68.4907 18.8799)" overflow="visible"/>
				
					<use xlink:href="#New_Symbol"  width="14.966" height="16.262" x="-7.483" y="-8.131" transform="matrix(0.9257 -1.4627 -1.4627 -0.9257 79.168 -3.9946)" overflow="visible"/>
				
					<use xlink:href="#New_Symbol"  width="14.966" height="16.262" x="-7.483" y="-8.131" transform="matrix(1.0759 0.2463 0.2463 -1.0759 144.4922 30.0879)" overflow="visible"/>
				
					<use xlink:href="#New_Symbol"  width="14.966" height="16.262" x="-7.483" y="-8.131" transform="matrix(0.9039 0.4509 0.4509 -0.9039 108.9014 63.3716)" overflow="visible"/>
				
					<use xlink:href="#New_Symbol"  width="14.966" height="16.262" x="-7.483" y="-8.131" transform="matrix(1.2966 -0.4059 -0.4059 -1.2966 108.7695 -26.4346)" overflow="visible"/>
				
					<use xlink:href="#New_Symbol"  width="14.966" height="16.262" x="-7.483" y="-8.131" transform="matrix(0.9953 -0.9249 -0.9249 -0.9953 42.749 -29.2173)" overflow="visible"/>
				
					<use xlink:href="#New_Symbol"  width="14.966" height="16.262" x="-7.483" y="-8.131" transform="matrix(1.2311 -0.5748 -0.5748 -1.2311 69.9956 -37.5156)" overflow="visible"/>
				
					<use xlink:href="#New_Symbol"  width="14.966" height="16.262" x="-7.483" y="-8.131" transform="matrix(0.1687 -1.3157 -1.3157 -0.1687 56.0132 -11.0044)" overflow="visible"/>
				
					<use xlink:href="#New_Symbol"  width="14.966" height="16.262" x="-7.483" y="-8.131" transform="matrix(1.3107 -0.3578 -0.3578 -1.3107 88.3223 -31.9243)" overflow="visible"/>
				
					<use xlink:href="#New_Symbol"  width="14.966" height="16.262" x="-7.483" y="-8.131" transform="matrix(0.525 -1.2532 -1.2532 -0.525 32.3032 -9.5557)" overflow="visible"/>
				
					<use xlink:href="#New_Symbol"  width="14.966" height="16.262" x="-7.483" y="-8.131" transform="matrix(-0.3888 -1.4334 -1.4334 0.3888 37.438 15.5747)" overflow="visible"/>
				
					<use xlink:href="#New_Symbol"  width="14.966" height="16.262" x="-7.483" y="-8.131" transform="matrix(1.3557 0.0901 0.0901 -1.3557 -13.1626 34.1396)" overflow="visible"/>
				
					<use xlink:href="#New_Symbol"  width="14.966" height="16.262" x="-7.483" y="-8.131" transform="matrix(0.0364 -0.8933 -0.8933 -0.0364 18.8232 51.5728)" overflow="visible"/>
				
					<use xlink:href="#New_Symbol"  width="14.966" height="16.262" x="-7.483" y="-8.131" transform="matrix(0.1657 -0.9734 -0.9734 -0.1657 97.8223 33.4512)" overflow="visible"/>
				
					<use xlink:href="#New_Symbol"  width="14.966" height="16.262" x="-7.483" y="-8.131" transform="matrix(-1.2246 -1.0302 -1.0302 1.2246 37.8945 39.7983)" overflow="visible"/>
				
					<use xlink:href="#New_Symbol"  width="14.966" height="16.262" x="-7.483" y="-8.131" transform="matrix(0.9008 -1.0172 -1.0172 -0.9008 9.6484 7.4668)" overflow="visible"/>
				
					<use xlink:href="#New_Symbol"  width="14.966" height="16.262" x="-7.483" y="-8.131" transform="matrix(0.8376 -1.0698 -1.0698 -0.8376 113.7051 -8.5083)" overflow="visible"/>
				
					<use xlink:href="#New_Symbol"  width="14.966" height="16.262" x="-7.483" y="-8.131" transform="matrix(-0.0576 -1.9089 -1.9089 0.0576 98.7725 9.645)" overflow="visible"/>
				
					<use xlink:href="#New_Symbol"  width="14.966" height="16.262" x="-7.483" y="-8.131" transform="matrix(1.1758 -0.6809 -0.6809 -1.1758 133.1475 1.4058)" overflow="visible"/>
				
					<use xlink:href="#New_Symbol"  width="14.966" height="16.262" x="-7.483" y="-8.131" transform="matrix(1.3016 -0.3897 -0.3897 -1.3016 153.4287 13.6362)" overflow="visible"/>
				
					<use xlink:href="#New_Symbol"  width="14.966" height="16.262" x="-7.483" y="-8.131" transform="matrix(1.3169 0.3344 0.3344 -1.3169 180.4668 23.1455)" overflow="visible"/>
				
					<use xlink:href="#New_Symbol"  width="14.966" height="16.262" x="-7.483" y="-8.131" transform="matrix(1.3464 0.1827 0.1827 -1.3464 187.1406 52.7129)" overflow="visible"/>
				
					<use xlink:href="#New_Symbol"  width="14.966" height="16.262" x="-7.483" y="-8.131" transform="matrix(0.9137 -1.0056 -1.0056 -0.9137 179.415 83.3984)" overflow="visible"/>
				
					<use xlink:href="#New_Symbol"  width="14.966" height="16.262" x="-7.483" y="-8.131" transform="matrix(0.6459 0.2966 0.2966 -0.6459 123.8467 70.9854)" overflow="visible"/>
				
					<use xlink:href="#New_Symbol"  width="14.966" height="16.262" x="-7.483" y="-8.131" transform="matrix(-0.2905 1.6738 1.6738 0.2905 44.0825 67.3184)" overflow="visible"/>
				
					<use xlink:href="#New_Symbol"  width="14.966" height="16.262" x="-7.483" y="-8.131" transform="matrix(1.1417 0.1828 0.1828 -1.1417 126.6279 47.4409)" overflow="visible"/>
				
					<use xlink:href="#New_Symbol"  width="14.966" height="16.262" x="-7.483" y="-8.131" transform="matrix(1.8326 -0.2828 -0.2828 -1.8326 152.1494 53.3052)" overflow="visible"/>
				
					<use xlink:href="#New_Symbol"  width="14.966" height="16.262" x="-7.483" y="-8.131" transform="matrix(1.1885 0.6584 0.6584 -1.1885 84.3418 127.8672)" overflow="visible"/>
				
					<use xlink:href="#New_Symbol"  width="14.966" height="16.262" x="-7.483" y="-8.131" transform="matrix(1.0066 0.9126 0.9126 -1.0066 40.6899 158.7539)" overflow="visible"/>
				
					<use xlink:href="#New_Symbol"  width="14.966" height="16.262" x="-7.483" y="-8.131" transform="matrix(0.9431 0.9781 0.9781 -0.9431 18.1104 140.0645)" overflow="visible"/>
				
					<use xlink:href="#New_Symbol"  width="14.966" height="16.262" x="-7.483" y="-8.131" transform="matrix(1.0673 0.8408 0.8408 -1.0673 66.6035 156.4609)" overflow="visible"/>
				
					<use xlink:href="#New_Symbol"  width="14.966" height="16.262" x="-7.483" y="-8.131" transform="matrix(1.1455 0.7307 0.7307 -1.1455 89.1895 152.2441)" overflow="visible"/>
				
					<use xlink:href="#New_Symbol"  width="14.966" height="16.262" x="-7.483" y="-8.131" transform="matrix(1.1356 0.7459 0.7459 -1.1356 62.5083 126.9473)" overflow="visible"/>
				
					<use xlink:href="#New_Symbol"  width="14.966" height="16.262" x="-7.483" y="-8.131" transform="matrix(1.2293 0.5787 0.5787 -1.2293 113.167 133.6406)" overflow="visible"/>
				
					<use xlink:href="#New_Symbol"  width="14.966" height="16.262" x="-7.483" y="-8.131" transform="matrix(1.0707 0.0183 0.0183 -1.0707 66.978 106.4004)" overflow="visible"/>
				
					<use xlink:href="#New_Symbol"  width="14.966" height="16.262" x="-7.483" y="-8.131" transform="matrix(1.278 0.4612 0.4612 -1.278 88.3652 101.3984)" overflow="visible"/>
				
					<use xlink:href="#New_Symbol"  width="14.966" height="16.262" x="-7.483" y="-8.131" transform="matrix(1.2987 0.3994 0.3994 -1.2987 132.3818 114.9512)" overflow="visible"/>
				
					<use xlink:href="#New_Symbol"  width="14.966" height="16.262" x="-7.483" y="-8.131" transform="matrix(1.0819 0.8219 0.8219 -1.0819 37.731 136.6602)" overflow="visible"/>
				
					<use xlink:href="#New_Symbol"  width="14.966" height="16.262" x="-7.483" y="-8.131" transform="matrix(1.2321 0.5727 0.5727 -1.2321 106.0449 115.8008)" overflow="visible"/>
				
					<use xlink:href="#New_Symbol"  width="14.966" height="16.262" x="-7.483" y="-8.131" transform="matrix(1.3102 0.3614 0.3614 -1.3102 20.0659 99.3633)" overflow="visible"/>
				
					<use xlink:href="#New_Symbol"  width="14.966" height="16.262" x="-7.483" y="-8.131" transform="matrix(1.3204 0.3204 0.3204 -1.3204 -2.4629 105.4395)" overflow="visible"/>
				
					<use xlink:href="#New_Symbol"  width="14.966" height="16.262" x="-7.483" y="-8.131" transform="matrix(2.2713 -0.0628 -0.0628 -2.2713 43.3301 102.6855)" overflow="visible"/>
				
					<use xlink:href="#New_Symbol"  width="14.966" height="16.262" x="-7.483" y="-8.131" transform="matrix(1.1071 0.5647 0.5647 -1.1071 126.8174 95.4238)" overflow="visible"/>
				
					<use xlink:href="#New_Symbol"  width="14.966" height="16.262" x="-7.483" y="-8.131" transform="matrix(1.142 0.4825 0.4825 -1.142 108.9961 89.9785)" overflow="visible"/>
				
					<use xlink:href="#New_Symbol"  width="14.966" height="16.262" x="-7.483" y="-8.131" transform="matrix(1.2049 -0.0133 -0.0133 -1.2049 62.9297 85.3398)" overflow="visible"/>
				
					<use xlink:href="#New_Symbol"  width="14.966" height="16.262" x="-7.483" y="-8.131" transform="matrix(1.2713 0.4793 0.4793 -1.2713 -7.6055 80.0586)" overflow="visible"/>
				
					<use xlink:href="#New_Symbol"  width="14.966" height="16.262" x="-7.483" y="-8.131" transform="matrix(1.1432 -0.4671 -0.4671 -1.1432 123.4521 26.2261)" overflow="visible"/>
				
					<use xlink:href="#New_Symbol"  width="14.966" height="16.262" x="-7.483" y="-8.131" transform="matrix(-1.4995 2.4427 2.4427 1.4995 67.7563 51.3955)" overflow="visible"/>
				
					<use xlink:href="#New_Symbol"  width="14.966" height="16.262" x="-7.483" y="-8.131" transform="matrix(0.597 1.2205 1.2205 -0.597 86.4219 72.123)" overflow="visible"/>
				
					<use xlink:href="#New_Symbol"  width="14.966" height="16.262" x="-7.483" y="-8.131" transform="matrix(-0.2054 -0.9808 -0.9808 0.2054 104.4023 47.7119)" overflow="visible"/>
				
					<use xlink:href="#New_Symbol"  width="14.966" height="16.262" x="-7.483" y="-8.131" transform="matrix(1.1575 0.0626 0.0626 -1.1575 -6.4443 61.1348)" overflow="visible"/>
			</g>
		</g>
	</g>
</g>
</svg>
