<?xml version="1.0" encoding="utf-8"?>
<!-- Generator: Adobe Illustrator 16.0.0, SVG Export Plug-In . SVG Version: 6.00 Build 0)  -->
<!DOCTYPE svg PUBLIC "-//W3C//DTD SVG 1.1//EN" "http://www.w3.org/Graphics/SVG/1.1/DTD/svg11.dtd">
<svg version="1.1" id="Layer_1" xmlns="http://www.w3.org/2000/svg" xmlns:xlink="http://www.w3.org/1999/xlink" x="0px" y="0px"
	 width="610px" height="145px" viewBox="0 0 610 145" enable-background="new 0 0 610 145" xml:space="preserve">
<path d="M120.169,60.449L82.147,80.812l38.021,20.364v19.441l-74.32-39.806l74.32-39.807L120.169,60.449L120.169,60.449z"/>
<path d="M210.608,35.717c9.844,9.844,14.766,21.656,14.766,35.438c0,13.783-4.922,25.594-14.766,35.376
	c-9.844,9.781-21.656,14.703-35.438,14.703c-13.782,0-25.594-4.922-35.376-14.703c-9.782-9.782-14.704-21.596-14.704-35.376
	s4.922-25.594,14.704-35.438c9.782-9.844,21.595-14.766,35.376-14.766C188.951,20.951,200.765,25.873,210.608,35.717z
	 M153.945,49.806c-5.845,5.906-8.798,12.981-8.798,21.226c0,8.306,2.953,15.381,8.798,21.226c5.845,5.846,12.92,8.799,21.226,8.799
	c8.244,0,15.319-2.953,21.226-8.799c5.907-5.845,8.859-12.92,8.859-21.226c0-8.244-2.953-15.319-8.859-21.226
	c-5.906-5.907-12.981-8.859-21.226-8.859C166.865,40.946,159.79,43.899,153.945,49.806z"/>
<path d="M276.069,21.443h24.794v19.811h-24.794v79.365h-19.872V41.254h-24.794V21.443h24.794H276.069z"/>
<path d="M316.982,106.1l-6.461,14.273h-3.444h-0.8h-12.92h-4.245l44.974-100.775l45.098,100.775h-4.246h-12.92h-0.86h-3.445
	l-6.397-14.335l-0.309-0.677H317.23L316.982,106.1z M342.884,87.827l-8.735-20.61l-8.799,20.61H342.884z"/>
<path d="M406.499,21.443v37.652l21.841-37.652h22.948l-29.285,50.388l34.022,48.788h-24.18l-25.348-36.422v36.422h-19.872V21.443
	H406.499z"/>
<path fill="#6D00CC" d="M518.287,9.016l-42.451,123.97h-17.35l42.45-123.97H518.287z"/>
<path d="M595.13,80.812l-74.382,39.807v-19.441l38.083-20.363L520.748,60.45V41.008L595.13,80.812z"/>
</svg>
