<?xml version="1.0" encoding="utf-8"?>
<!-- Generator: Adobe Illustrator 16.0.0, SVG Export Plug-In . SVG Version: 6.00 Build 0)  -->
<!DOCTYPE svg PUBLIC "-//W3C//DTD SVG 1.1//EN" "http://www.w3.org/Graphics/SVG/1.1/DTD/svg11.dtd">
<svg version="1.1" id="Layer_1" xmlns="http://www.w3.org/2000/svg" xmlns:xlink="http://www.w3.org/1999/xlink" x="0px" y="0px"
	 width="720px" height="720px" viewBox="0 0 720 720" enable-background="new 0 0 720 720" xml:space="preserve">
<path fill="#FFFFFF" d="M171.071,341.688l-35.615,19.076l35.615,19.074v18.211l-69.616-37.285l69.616-37.287V341.688z"/>
<path fill="#FFFFFF" d="M255.786,318.521c9.221,9.221,13.831,20.286,13.831,33.194c0,12.909-4.61,23.975-13.831,33.137
	c-9.221,9.164-20.286,13.773-33.195,13.773c-12.909,0-23.974-4.609-33.137-13.773c-9.163-9.162-13.773-20.228-13.773-33.137
	c0-12.909,4.61-23.974,13.773-33.194s20.228-13.831,33.137-13.831C235.5,304.689,246.565,309.3,255.786,318.521z M202.709,331.718
	c-5.475,5.532-8.241,12.16-8.241,19.882c0,7.78,2.766,14.407,8.241,19.882s12.102,8.24,19.882,8.24c7.723,0,14.35-2.766,19.882-8.24
	c5.532-5.476,8.299-12.103,8.299-19.882c0-7.722-2.767-14.35-8.299-19.882c-5.532-5.533-12.16-8.299-19.882-8.299
	C214.812,323.419,208.184,326.185,202.709,331.718z"/>
<path fill="#FFFFFF" d="M317.104,305.15h23.226v18.557h-23.226v74.342H298.49v-74.342h-23.225V305.15h23.225H317.104z"/>
<path fill="#FFFFFF" d="M355.427,384.448l-6.051,13.37h-3.228h-0.749h-12.103h-3.977l42.127-94.397l42.242,94.397h-3.978h-12.103
	h-0.808h-3.228l-5.993-13.428l-0.288-0.635h-31.638L355.427,384.448z M379.688,367.332l-8.183-19.305l-8.241,19.305H379.688z"/>
<path fill="#FFFFFF" d="M439.277,305.15v35.269l20.459-35.269h21.495L453.8,352.349l31.869,45.7h-22.648l-23.742-34.115v34.115
	h-18.614V305.15H439.277z"/>
<path fill="#ED1F24" d="M543.99,293.509l-39.766,116.124h-16.251l39.765-116.124H543.99z"/>
<path fill="#FFFFFF" d="M615.969,360.764l-69.674,37.285v-18.211l35.673-19.074l-35.673-19.076v-18.211L615.969,360.764z"/>
</svg>
