<?xml version="1.0" encoding="utf-8"?>
<!-- Generator: Adobe Illustrator 16.0.0, SVG Export Plug-In . SVG Version: 6.00 Build 0)  -->
<!DOCTYPE svg PUBLIC "-//W3C//DTD SVG 1.1//EN" "http://www.w3.org/Graphics/SVG/1.1/DTD/svg11.dtd">
<svg version="1.1" id="Layer_1" xmlns="http://www.w3.org/2000/svg" xmlns:xlink="http://www.w3.org/1999/xlink" x="0px" y="0px"
	 width="6986px" height="4870.5px" viewBox="0 0 6986 4870.5" enable-background="new 0 0 6986 4870.5" xml:space="preserve">
<rect x="1386.359" y="1240.115" fill="#024591" width="4952.887" height="3136.828"/>
<rect x="3216.176" y="2223.812" fill="#2F2F2F" width="660.384" height="536.562"/>
<rect x="1276.35" y="2437.062" fill="#736757" width="880.512" height="646.625"/>
<rect x="1345.086" y="1652.855" fill="#796858" width="440.256" height="577.836"/>
<rect x="5321.125" y="2313.24" fill="#0F8211" width="770.449" height="1183.188"/>
<rect x="5871.471" y="1694.131" fill="#5E5342" width="701.66" height="467.771"/>
<rect x="5169.814" y="3861.006" fill="#2F2A24" width="577.836" height="536.561"/>
<rect x="3270.053" y="4055.633" fill="#32322A" width="1678.477" height="220.127"/>
<polygon fill="none" stroke="#FFFFFF" stroke-width="55.0321" stroke-miterlimit="10" points="5142.244,3066.504 5142.244,1859.239 
	2280.577,1859.239 2280.577,3111.221 3978,3111.221 3978,3465.487 5142.271,3465.487 5142.271,3066.504 "/>
<circle fill="none" stroke="#F4BC62" stroke-width="68.7901" stroke-miterlimit="10" cx="1624.827" cy="1396.022" r="100.888"/>
<circle fill="none" stroke="#F4BC62" stroke-width="68.7901" stroke-miterlimit="10" cx="1569.796" cy="4115.527" r="100.888"/>
<path fill="none" stroke="#F4BC62" stroke-width="68.7901" stroke-miterlimit="10" d="M6238.559,4198.061
	c0,55.717-45.171,100.889-100.887,100.889c-55.717,0-100.889-45.171-100.889-100.889c0-55.715,45.171-100.886,100.889-100.886
	C6193.388,4097.175,6238.559,4142.346,6238.559,4198.061z"/>
<circle fill="none" stroke="#F4BC62" stroke-width="68.7901" stroke-miterlimit="10" cx="6165.146" cy="1473.854" r="100.887"/>
<rect x="5302.853" y="1327.246" fill="#DDE9DF" width="311.853" height="206.369"/>
<rect x="5692.674" y="1355.434" fill="#DDE9DF" width="275.172" height="182.105"/>
<rect x="2464.093" y="1964.723" fill="#4A494A" width="499.884" height="307.271"/>
<rect x="2473.27" y="2675.557" fill="#4A494A" width="499.884" height="307.273"/>
<rect x="4536.973" y="2716.832" fill="#4A494A" width="298.095" height="298.094"/>
<rect x="2010.104" y="3299.248" fill="#4A494A" width="229.292" height="233.889"/>
<rect x="1267.172" y="2574.67" fill="#FEF5EC" width="302.678" height="73.385"/>
<rect x="1271.769" y="2776.444" fill="#FEF5EC" width="302.676" height="73.387"/>
<rect x="1386.428" y="3473.521" fill="#ADAA98" width="233.885" height="284.336"/>
<rect x="3044.199" y="1322.664" fill="#090707" width="1946.76" height="220.128"/>
<rect x="3280.357" y="4060.521" fill="#090707" width="1669.312" height="215.533"/>
<rect x="5834.82" y="3734.963" fill="#090707" width="550.318" height="215.549"/>
<rect x="2805.733" y="3608.793" fill="#090707" width="119.228" height="103.182"/>
<rect x="3335.416" y="3565.221" fill="#090707" width="116.944" height="110.062"/>
<rect x="4199.873" y="3760.129" fill="#090707" width="110.063" height="34.396"/>
<rect x="3853.627" y="3792.229" fill="#090707" width="103.186" height="55.032"/>
<rect x="2730.063" y="3629.428" fill="#090707" width="45.854" height="71.075"/>
<rect x="4512.868" y="3124.962" fill="#090707" width="96.306" height="106.625"/>
<rect x="4581.659" y="2443.941" fill="#090707" width="158.218" height="113.504"/>
<rect x="4268.664" y="2763.816" fill="#090707" width="96.306" height="189.172"/>
<rect x="4915.291" y="2811.969" fill="#090707" width="123.82" height="89.428"/>
<rect x="4901.531" y="3025.219" fill="#090707" width="127.264" height="113.502"/>
<rect x="3900.637" y="1948.652" fill="#090707" width="247.646" height="72.229"/>
<rect x="2094.897" y="1866.105" fill="#090707" width="48.152" height="116.942"/>
<rect x="2088.019" y="2093.112" fill="#090707" width="48.151" height="168.534"/>
<rect x="5530.975" y="1683.812" fill="#090707" width="55.033" height="106.625"/>
<rect x="5616.951" y="1683.812" fill="#090707" width="51.59" height="96.306"/>
<rect x="5245.482" y="1824.831" fill="#090707" width="113.504" height="44.714"/>
<rect x="5314.273" y="1958.972" fill="#090707" width="37.833" height="103.187"/>
<rect x="5555.039" y="2839.484" fill="#090707" width="189.172" height="185.734"/>
<rect x="5455.293" y="2911.714" fill="#090707" width="68.791" height="99.746"/>
<rect x="6191.347" y="3307.258" fill="#090707" width="106.626" height="361.146"/>
<rect x="3250.57" y="3596.176" fill="#090707" width="44.713" height="89.426"/>
<rect x="3560.125" y="3737.195" fill="#090707" width="34.396" height="85.984"/>
<rect x="2954.773" y="3644.329" fill="#090707" width="85.987" height="34.394"/>
<rect x="3642.674" y="3603.056" fill="#090707" width="96.306" height="27.515"/>
<g>
	<path fill="#957D2D" d="M3312.078,1375.654c0,16.363-13.262,29.625-29.626,29.625l0,0c-16.364,0-29.625-13.262-29.625-29.625l0,0
		c0-16.365,13.261-29.625,29.625-29.625l0,0C3298.816,1346.029,3312.078,1359.289,3312.078,1375.654L3312.078,1375.654z"/>
	<path fill="#957D2D" d="M3312.078,1477.791c0,16.364-13.262,29.625-29.626,29.625l0,0c-16.364,0-29.625-13.261-29.625-29.625l0,0
		c0-16.365,13.261-29.625,29.625-29.625l0,0C3298.816,1448.166,3312.078,1461.426,3312.078,1477.791L3312.078,1477.791z"/>
	<path fill="#957D2D" d="M3445.844,1477.791c0,16.364-13.274,29.625-29.639,29.625l0,0c-16.353,0-29.612-13.261-29.612-29.625l0,0
		c0-16.365,13.261-29.625,29.612-29.625l0,0C3432.568,1448.166,3445.844,1461.426,3445.844,1477.791L3445.844,1477.791z"/>
	<path fill="#957D2D" d="M3445.844,1375.654c0,16.363-13.274,29.625-29.639,29.625l0,0c-16.353,0-29.612-13.262-29.612-29.625l0,0
		c0-16.365,13.261-29.625,29.612-29.625l0,0C3432.568,1346.029,3445.844,1359.289,3445.844,1375.654L3445.844,1375.654z"/>
	<path fill="#957D2D" d="M3579.607,1375.654c0,16.363-13.262,29.625-29.626,29.625l0,0c-16.351,0-29.626-13.262-29.626-29.625l0,0
		c0-16.365,13.275-29.625,29.626-29.625l0,0C3566.346,1346.029,3579.607,1359.289,3579.607,1375.654L3579.607,1375.654z"/>
	<path fill="#957D2D" d="M3579.607,1477.791c0,16.364-13.262,29.625-29.626,29.625l0,0c-16.351,0-29.626-13.261-29.626-29.625l0,0
		c0-16.365,13.275-29.625,29.626-29.625l0,0C3566.346,1448.166,3579.607,1461.426,3579.607,1477.791L3579.607,1477.791z"/>
	<path fill="#957D2D" d="M3713.357,1477.791c0,16.364-13.26,29.625-29.611,29.625l0,0c-16.365,0-29.639-13.261-29.639-29.625l0,0
		c0-16.365,13.273-29.625,29.639-29.625l0,0C3700.099,1448.166,3713.357,1461.426,3713.357,1477.791L3713.357,1477.791z"/>
	<path fill="#957D2D" d="M3713.357,1375.654c0,16.363-13.26,29.625-29.611,29.625l0,0c-16.365,0-29.639-13.262-29.639-29.625l0,0
		c0-16.365,13.273-29.625,29.639-29.625l0,0C3700.099,1346.029,3713.357,1359.289,3713.357,1375.654L3713.357,1375.654z"/>
	<path fill="#957D2D" d="M3847.123,1375.654c0,16.363-13.26,29.625-29.625,29.625l0,0c-16.363,0-29.625-13.262-29.625-29.625l0,0
		c0-16.365,13.262-29.625,29.625-29.625l0,0C3833.862,1346.029,3847.123,1359.289,3847.123,1375.654L3847.123,1375.654z"/>
	<path fill="#957D2D" d="M3847.123,1477.791c0,16.364-13.26,29.625-29.625,29.625l0,0c-16.363,0-29.625-13.261-29.625-29.625l0,0
		c0-16.365,13.262-29.625,29.625-29.625l0,0C3833.862,1448.166,3847.123,1461.426,3847.123,1477.791L3847.123,1477.791z"/>
	<path fill="#957D2D" d="M3980.888,1477.791c0,16.364-13.273,29.625-29.64,29.625l0,0c-16.352,0-29.611-13.261-29.611-29.625l0,0
		c0-16.365,13.261-29.625,29.611-29.625l0,0C3967.614,1448.166,3980.888,1461.426,3980.888,1477.791L3980.888,1477.791z"/>
	<path fill="#957D2D" d="M3980.888,1375.654c0,16.363-13.273,29.625-29.64,29.625l0,0c-16.352,0-29.611-13.262-29.611-29.625l0,0
		c0-16.365,13.261-29.625,29.611-29.625l0,0C3967.614,1346.029,3980.888,1359.289,3980.888,1375.654L3980.888,1375.654z"/>
	<path fill="#957D2D" d="M4114.639,1375.654c0,16.363-13.262,29.625-29.626,29.625l0,0c-16.351,0-29.625-13.262-29.625-29.625l0,0
		c0-16.365,13.274-29.625,29.625-29.625l0,0C4101.377,1346.029,4114.639,1359.289,4114.639,1375.654L4114.639,1375.654z"/>
	<path fill="#957D2D" d="M4114.639,1477.791c0,16.364-13.262,29.625-29.626,29.625l0,0c-16.351,0-29.625-13.261-29.625-29.625l0,0
		c0-16.365,13.274-29.625,29.625-29.625l0,0C4101.377,1448.166,4114.639,1461.426,4114.639,1477.791L4114.639,1477.791z"/>
	<path fill="#957D2D" d="M4248.401,1477.791c0,16.364-13.258,29.625-29.623,29.625l0,0c-16.354,0-29.626-13.261-29.626-29.625l0,0
		c0-16.365,13.271-29.625,29.626-29.625l0,0C4235.144,1448.166,4248.401,1461.426,4248.401,1477.791L4248.401,1477.791z"/>
	<path fill="#957D2D" d="M4248.401,1375.654c0,16.363-13.258,29.625-29.623,29.625l0,0c-16.354,0-29.626-13.262-29.626-29.625l0,0
		c0-16.365,13.271-29.625,29.626-29.625l0,0C4235.144,1346.029,4248.401,1359.289,4248.401,1375.654L4248.401,1375.654z"/>
	<path fill="#957D2D" d="M4382.182,1375.654c0,16.363-13.275,29.625-29.639,29.625l0,0c-16.365,0-29.627-13.262-29.627-29.625l0,0
		c0-16.365,13.262-29.625,29.627-29.625l0,0C4368.906,1346.029,4382.182,1359.289,4382.182,1375.654L4382.182,1375.654z"/>
	<path fill="#957D2D" d="M4382.182,1477.791c0,16.364-13.275,29.625-29.639,29.625l0,0c-16.365,0-29.627-13.261-29.627-29.625l0,0
		c0-16.365,13.262-29.625,29.627-29.625l0,0C4368.906,1448.166,4382.182,1461.426,4382.182,1477.791L4382.182,1477.791z"/>
	<path fill="#957D2D" d="M4515.931,1477.791c0,16.364-13.272,29.625-29.625,29.625l0,0c-16.365,0-29.623-13.261-29.623-29.625l0,0
		c0-16.365,13.258-29.625,29.623-29.625l0,0C4502.658,1448.166,4515.931,1461.426,4515.931,1477.791L4515.931,1477.791z"/>
	<path fill="#957D2D" d="M4515.931,1375.654c0,16.363-13.272,29.625-29.625,29.625l0,0c-16.365,0-29.623-13.262-29.623-29.625l0,0
		c0-16.365,13.258-29.625,29.623-29.625l0,0C4502.658,1346.029,4515.931,1359.289,4515.931,1375.654L4515.931,1375.654z"/>
	<path fill="#957D2D" d="M4649.682,1375.654c0,16.363-13.262,29.625-29.625,29.625l0,0c-16.351,0-29.611-13.262-29.611-29.625l0,0
		c0-16.365,13.261-29.625,29.611-29.625l0,0C4636.42,1346.029,4649.682,1359.289,4649.682,1375.654L4649.682,1375.654z"/>
	<path fill="#957D2D" d="M4649.682,1477.791c0,16.364-13.262,29.625-29.625,29.625l0,0c-16.351,0-29.611-13.261-29.611-29.625l0,0
		c0-16.365,13.261-29.625,29.611-29.625l0,0C4636.42,1448.166,4649.682,1461.426,4649.682,1477.791L4649.682,1477.791z"/>
	<path fill="#957D2D" d="M4783.459,1477.791c0,16.364-13.262,29.625-29.625,29.625l0,0c-16.364,0-29.638-13.261-29.638-29.625l0,0
		c0-16.365,13.272-29.625,29.638-29.625l0,0C4770.198,1448.166,4783.459,1461.426,4783.459,1477.791L4783.459,1477.791z"/>
	<path fill="#957D2D" d="M4783.459,1375.654c0,16.363-13.262,29.625-29.625,29.625l0,0c-16.364,0-29.638-13.262-29.638-29.625l0,0
		c0-16.365,13.272-29.625,29.638-29.625l0,0C4770.198,1346.029,4783.459,1359.289,4783.459,1375.654L4783.459,1375.654z"/>
</g>
<g>
	<path fill="#957D2D" d="M3406.101,4118.889c0,16.362-13.261,29.623-29.625,29.623l0,0c-16.364,0-29.626-13.26-29.626-29.623l0,0
		c0-16.365,13.262-29.627,29.626-29.627l0,0C3392.84,4089.262,3406.101,4102.523,3406.101,4118.889L3406.101,4118.889z"/>
	<path fill="#957D2D" d="M3406.101,4221.023c0,16.362-13.261,29.625-29.625,29.625l0,0c-16.364,0-29.626-13.263-29.626-29.625l0,0
		c0-16.365,13.262-29.627,29.626-29.627l0,0C3392.84,4191.396,3406.101,4204.658,3406.101,4221.023L3406.101,4221.023z"/>
	<path fill="#957D2D" d="M3539.865,4221.023c0,16.362-13.275,29.625-29.64,29.625l0,0c-16.351,0-29.611-13.263-29.611-29.625l0,0
		c0-16.365,13.261-29.627,29.611-29.627l0,0C3526.59,4191.396,3539.865,4204.658,3539.865,4221.023L3539.865,4221.023z"/>
	<path fill="#957D2D" d="M3539.865,4118.889c0,16.362-13.275,29.623-29.64,29.623l0,0c-16.351,0-29.611-13.26-29.611-29.623l0,0
		c0-16.365,13.261-29.627,29.611-29.627l0,0C3526.59,4089.262,3539.865,4102.523,3539.865,4118.889L3539.865,4118.889z"/>
	<path fill="#957D2D" d="M3673.629,4118.889c0,16.362-13.262,29.623-29.625,29.623l0,0c-16.352,0-29.627-13.26-29.627-29.623l0,0
		c0-16.365,13.275-29.627,29.627-29.627l0,0C3660.368,4089.262,3673.629,4102.523,3673.629,4118.889L3673.629,4118.889z"/>
	<path fill="#957D2D" d="M3673.629,4221.023c0,16.362-13.262,29.625-29.625,29.625l0,0c-16.352,0-29.627-13.263-29.627-29.625l0,0
		c0-16.365,13.275-29.627,29.627-29.627l0,0C3660.368,4191.396,3673.629,4204.658,3673.629,4221.023L3673.629,4221.023z"/>
	<path fill="#957D2D" d="M3807.381,4221.023c0,16.362-13.262,29.625-29.611,29.625l0,0c-16.365,0-29.641-13.263-29.641-29.625l0,0
		c0-16.365,13.275-29.627,29.641-29.627l0,0C3794.119,4191.396,3807.381,4204.658,3807.381,4221.023L3807.381,4221.023z"/>
	<path fill="#957D2D" d="M3807.381,4118.889c0,16.362-13.262,29.623-29.611,29.623l0,0c-16.365,0-29.641-13.26-29.641-29.623l0,0
		c0-16.365,13.275-29.627,29.641-29.627l0,0C3794.119,4089.262,3807.381,4102.523,3807.381,4118.889L3807.381,4118.889z"/>
	<path fill="#957D2D" d="M3941.146,4118.889c0,16.362-13.261,29.623-29.627,29.623l0,0c-16.364,0-29.625-13.26-29.625-29.623l0,0
		c0-16.365,13.261-29.627,29.625-29.627l0,0C3927.886,4089.262,3941.146,4102.523,3941.146,4118.889L3941.146,4118.889z"/>
	<path fill="#957D2D" d="M3941.146,4221.023c0,16.362-13.261,29.625-29.627,29.625l0,0c-16.364,0-29.625-13.263-29.625-29.625l0,0
		c0-16.365,13.261-29.627,29.625-29.627l0,0C3927.886,4191.396,3941.146,4204.658,3941.146,4221.023L3941.146,4221.023z"/>
	<path fill="#957D2D" d="M4074.909,4221.023c0,16.362-13.274,29.625-29.64,29.625l0,0c-16.352,0-29.612-13.263-29.612-29.625l0,0
		c0-16.365,13.261-29.627,29.612-29.627l0,0C4061.634,4191.396,4074.909,4204.658,4074.909,4221.023L4074.909,4221.023z"/>
	<path fill="#957D2D" d="M4074.909,4118.889c0,16.362-13.274,29.623-29.64,29.623l0,0c-16.352,0-29.612-13.26-29.612-29.623l0,0
		c0-16.365,13.261-29.627,29.612-29.627l0,0C4061.634,4089.262,4074.909,4102.523,4074.909,4118.889L4074.909,4118.889z"/>
	<path fill="#957D2D" d="M4208.66,4118.889c0,16.362-13.261,29.623-29.625,29.623l0,0c-16.35,0-29.625-13.26-29.625-29.623l0,0
		c0-16.365,13.275-29.627,29.625-29.627l0,0C4195.399,4089.262,4208.66,4102.523,4208.66,4118.889L4208.66,4118.889z"/>
	<path fill="#957D2D" d="M4208.66,4221.023c0,16.362-13.261,29.625-29.625,29.625l0,0c-16.35,0-29.625-13.263-29.625-29.625l0,0
		c0-16.365,13.275-29.627,29.625-29.627l0,0C4195.399,4191.396,4208.66,4204.658,4208.66,4221.023L4208.66,4221.023z"/>
	<path fill="#957D2D" d="M4342.425,4221.023c0,16.362-13.261,29.625-29.626,29.625l0,0c-16.352,0-29.625-13.263-29.625-29.625l0,0
		c0-16.365,13.274-29.627,29.625-29.627l0,0C4329.164,4191.396,4342.425,4204.658,4342.425,4221.023L4342.425,4221.023z"/>
	<path fill="#957D2D" d="M4342.425,4118.889c0,16.362-13.261,29.623-29.626,29.623l0,0c-16.352,0-29.625-13.26-29.625-29.623l0,0
		c0-16.365,13.274-29.627,29.625-29.627l0,0C4329.164,4089.262,4342.425,4102.523,4342.425,4118.889L4342.425,4118.889z"/>
	<path fill="#957D2D" d="M4476.201,4118.889c0,16.362-13.271,29.623-29.636,29.623l0,0c-16.365,0-29.627-13.26-29.627-29.623l0,0
		c0-16.365,13.262-29.627,29.627-29.627l0,0C4462.93,4089.262,4476.201,4102.523,4476.201,4118.889L4476.201,4118.889z"/>
	<path fill="#957D2D" d="M4476.201,4221.023c0,16.362-13.271,29.625-29.636,29.625l0,0c-16.365,0-29.627-13.263-29.627-29.625l0,0
		c0-16.365,13.262-29.627,29.627-29.627l0,0C4462.93,4191.396,4476.201,4204.658,4476.201,4221.023L4476.201,4221.023z"/>
	<path fill="#957D2D" d="M4609.953,4221.023c0,16.362-13.271,29.625-29.625,29.625l0,0c-16.363,0-29.626-13.263-29.626-29.625l0,0
		c0-16.365,13.263-29.627,29.626-29.627l0,0C4596.681,4191.396,4609.953,4204.658,4609.953,4221.023L4609.953,4221.023z"/>
	<path fill="#957D2D" d="M4609.953,4118.889c0,16.362-13.271,29.623-29.625,29.623l0,0c-16.363,0-29.626-13.26-29.626-29.623l0,0
		c0-16.365,13.263-29.627,29.626-29.627l0,0C4596.681,4089.262,4609.953,4102.523,4609.953,4118.889L4609.953,4118.889z"/>
	<path fill="#957D2D" d="M4743.705,4118.889c0,16.362-13.262,29.623-29.625,29.623l0,0c-16.351,0-29.611-13.26-29.611-29.623l0,0
		c0-16.365,13.262-29.627,29.611-29.627l0,0C4730.443,4089.262,4743.705,4102.523,4743.705,4118.889L4743.705,4118.889z"/>
	<path fill="#957D2D" d="M4743.705,4221.023c0,16.362-13.262,29.625-29.625,29.625l0,0c-16.351,0-29.611-13.263-29.611-29.625l0,0
		c0-16.365,13.262-29.627,29.611-29.627l0,0C4730.443,4191.396,4743.705,4204.658,4743.705,4221.023L4743.705,4221.023z"/>
	<path fill="#957D2D" d="M4877.482,4221.023c0,16.362-13.262,29.625-29.626,29.625l0,0c-16.364,0-29.637-13.263-29.637-29.625l0,0
		c0-16.365,13.271-29.627,29.637-29.627l0,0C4864.221,4191.396,4877.482,4204.658,4877.482,4221.023L4877.482,4221.023z"/>
	<path fill="#957D2D" d="M4877.482,4118.889c0,16.362-13.262,29.623-29.626,29.623l0,0c-16.364,0-29.637-13.26-29.637-29.623l0,0
		c0-16.365,13.271-29.627,29.637-29.627l0,0C4864.221,4089.262,4877.482,4102.523,4877.482,4118.889L4877.482,4118.889z"/>
</g>
<g>
	<rect x="3245.975" y="3413.895" fill="#EAEAEA" width="77.106" height="34.048"/>
	<rect x="3245.975" y="3478.492" fill="#EAEAEA" width="77.106" height="34.074"/>
	<rect x="3245.975" y="3446.195" fill="#D6AD66" width="77.106" height="34.058"/>
</g>
<g>
	<rect x="2718.589" y="3455.168" fill="#EAEAEA" width="49.592" height="34.046"/>
	<rect x="2718.589" y="3519.77" fill="#EAEAEA" width="49.592" height="34.072"/>
	<rect x="2718.589" y="3487.468" fill="#D6AD66" width="49.592" height="34.062"/>
</g>
<g>
	<rect x="4562.594" y="3265.875" fill="#EAEAEA" width="49.591" height="34.046"/>
	<rect x="4562.594" y="3330.473" fill="#EAEAEA" width="49.591" height="34.072"/>
	<rect x="4562.594" y="3298.175" fill="#D6AD66" width="49.591" height="34.06"/>
</g>
<g>
	<rect x="4684.117" y="3281.972" fill="#EAEAEA" width="49.592" height="34.048"/>
	<rect x="4684.117" y="3346.569" fill="#EAEAEA" width="49.592" height="34.073"/>
	<rect x="4684.117" y="3314.27" fill="#D6AD66" width="49.592" height="34.062"/>
</g>
<g>
	<rect x="4748.326" y="3284.27" fill="#EAEAEA" width="49.592" height="34.048"/>
	<rect x="4748.326" y="3348.868" fill="#EAEAEA" width="49.592" height="34.071"/>
	<rect x="4748.326" y="3316.566" fill="#D6AD66" width="49.592" height="34.062"/>
</g>
<g>
	<rect x="4817.115" y="3284.27" fill="#EAEAEA" width="49.592" height="34.048"/>
	<rect x="4817.115" y="3348.868" fill="#EAEAEA" width="49.592" height="34.071"/>
	<rect x="4817.115" y="3316.566" fill="#D6AD66" width="49.592" height="34.062"/>
</g>
<g>
	<rect x="4674.955" y="3128.35" fill="#EAEAEA" width="49.591" height="34.047"/>
	<rect x="4674.955" y="3192.948" fill="#EAEAEA" width="49.591" height="34.071"/>
	<rect x="4674.955" y="3160.646" fill="#D6AD66" width="49.591" height="34.062"/>
</g>
<g>
	<rect x="4729.986" y="3130.648" fill="#EAEAEA" width="49.592" height="34.043"/>
	<rect x="4729.986" y="3195.246" fill="#EAEAEA" width="49.592" height="34.073"/>
	<rect x="4729.986" y="3162.945" fill="#D6AD66" width="49.592" height="34.061"/>
</g>
<g>
	<rect x="4791.898" y="3130.648" fill="#EAEAEA" width="49.591" height="34.043"/>
	<rect x="4791.898" y="3195.246" fill="#EAEAEA" width="49.591" height="34.073"/>
	<rect x="4791.898" y="3162.945" fill="#D6AD66" width="49.591" height="34.061"/>
</g>
<g>
	<rect x="2624.997" y="3451.677" fill="#EAEAEA" width="49.591" height="34.046"/>
	<rect x="2624.997" y="3516.273" fill="#EAEAEA" width="49.591" height="34.072"/>
	<rect x="2624.997" y="3483.975" fill="#D6AD66" width="49.591" height="34.061"/>
</g>
<g>
	<rect x="2464.496" y="3719.957" fill="#EAEAEA" width="49.59" height="34.045"/>
	<rect x="2464.496" y="3784.555" fill="#EAEAEA" width="49.59" height="34.074"/>
	<rect x="2464.496" y="3752.257" fill="#D6AD66" width="49.59" height="34.059"/>
</g>
<g>
	<rect x="2395.693" y="3722.254" fill="#EAEAEA" width="49.59" height="34.047"/>
	<rect x="2395.693" y="3786.854" fill="#EAEAEA" width="49.59" height="34.074"/>
	<rect x="2395.693" y="3754.555" fill="#D6AD66" width="49.59" height="34.06"/>
</g>
<g>
	<rect x="2324.605" y="3724.538" fill="#EAEAEA" width="49.592" height="34.046"/>
	<rect x="2324.605" y="3789.136" fill="#EAEAEA" width="49.592" height="34.076"/>
	<rect x="2324.605" y="3756.837" fill="#D6AD66" width="49.592" height="34.06"/>
</g>
<g>
	<rect x="1740.589" y="3730.719" fill="#EAEAEA" width="34.045" height="49.605"/>
	<rect x="1805.187" y="3730.719" fill="#EAEAEA" width="34.072" height="49.605"/>
	<rect x="1772.888" y="3730.719" fill="#D6AD66" width="34.045" height="49.605"/>
</g>
<g>
	<rect x="3147.399" y="3498.729" fill="#EAEAEA" width="77.106" height="34.047"/>
	<rect x="3147.399" y="3563.326" fill="#EAEAEA" width="77.106" height="34.072"/>
	<rect x="3147.399" y="3531.025" fill="#D6AD66" width="77.106" height="34.061"/>
</g>
<g>
	<rect x="3060.256" y="3501.025" fill="#EAEAEA" width="77.106" height="34.043"/>
	<rect x="3060.256" y="3565.625" fill="#EAEAEA" width="77.106" height="34.071"/>
	<rect x="3060.256" y="3533.323" fill="#D6AD66" width="77.106" height="34.062"/>
</g>
<g>
	<rect x="3748.573" y="3736.039" fill="#EAEAEA" width="77.107" height="34.047"/>
	<rect x="3748.573" y="3800.637" fill="#EAEAEA" width="77.107" height="34.072"/>
	<rect x="3748.573" y="3768.34" fill="#D6AD66" width="77.107" height="34.057"/>
</g>
<g>
	<rect x="3412.174" y="3747.996" fill="#EAEAEA" width="34.046" height="77.107"/>
	<rect x="3347.549" y="3747.996" fill="#EAEAEA" width="34.072" height="77.107"/>
	<rect x="3379.861" y="3747.996" fill="#D6AD66" width="34.059" height="77.107"/>
</g>
<g>
	<rect x="3166.826" y="3743.402" fill="#EAEAEA" width="34.045" height="77.106"/>
	<rect x="3102.202" y="3743.402" fill="#EAEAEA" width="34.072" height="77.106"/>
	<rect x="3134.514" y="3743.402" fill="#D6AD66" width="34.059" height="77.106"/>
</g>
<g>
	<rect x="4326.381" y="3237.727" fill="#EAEAEA" width="34.047" height="49.593"/>
	<rect x="4261.758" y="3237.727" fill="#EAEAEA" width="34.072" height="49.593"/>
	<rect x="4294.069" y="3237.727" fill="#D6AD66" width="34.062" height="49.593"/>
</g>
<g>
	<rect x="4326.381" y="3181.553" fill="#EAEAEA" width="34.047" height="49.592"/>
	<rect x="4261.758" y="3181.553" fill="#EAEAEA" width="34.072" height="49.592"/>
	<rect x="4294.069" y="3181.553" fill="#D6AD66" width="34.062" height="49.592"/>
</g>
<g>
	<rect x="4326.381" y="3125.368" fill="#EAEAEA" width="34.047" height="49.602"/>
	<rect x="4261.758" y="3125.368" fill="#EAEAEA" width="34.072" height="49.602"/>
	<rect x="4294.069" y="3125.368" fill="#D6AD66" width="34.062" height="49.602"/>
</g>
<g>
	<rect x="4326.381" y="3069.193" fill="#EAEAEA" width="34.047" height="49.591"/>
	<rect x="4261.758" y="3069.193" fill="#EAEAEA" width="34.072" height="49.591"/>
	<rect x="4294.084" y="3069.193" fill="#D6AD66" width="34.048" height="49.591"/>
</g>
<g>
	<rect x="4326.381" y="3013.02" fill="#EAEAEA" width="34.047" height="49.591"/>
	<rect x="4261.758" y="3013.02" fill="#EAEAEA" width="34.072" height="49.591"/>
	<rect x="4294.069" y="3013.02" fill="#D6AD66" width="34.062" height="49.591"/>
</g>
<g>
	<rect x="5357.08" y="2205.89" fill="#EAEAEA" width="34.045" height="77.108"/>
	<rect x="5292.453" y="2205.89" fill="#EAEAEA" width="34.072" height="77.108"/>
	<rect x="5324.766" y="2205.89" fill="#D6AD66" width="34.061" height="77.108"/>
</g>
<rect x="4432.912" y="2065.462" fill="#090707" width="119.229" height="103.187"/>
<rect x="3905.515" y="2102.154" fill="#090707" width="116.941" height="110.064"/>
<rect x="3047.937" y="1982.914" fill="#090707" width="110.063" height="34.396"/>
<rect x="3401.062" y="1930.179" fill="#090707" width="103.186" height="55.032"/>
<rect x="4581.955" y="2076.936" fill="#090707" width="45.855" height="71.075"/>
<rect x="4062.588" y="2091.836" fill="#090707" width="44.713" height="89.428"/>
<rect x="3763.352" y="1954.256" fill="#090707" width="34.396" height="85.988"/>
<rect x="4317.112" y="2098.715" fill="#090707" width="85.987" height="34.396"/>
<rect x="3618.893" y="2146.868" fill="#090707" width="96.306" height="27.516"/>
<g>
	<rect x="4034.791" y="2329.498" fill="#EAEAEA" width="77.107" height="34.045"/>
	<rect x="4034.791" y="2264.873" fill="#EAEAEA" width="77.107" height="34.072"/>
	<rect x="4034.791" y="2297.186" fill="#D6AD66" width="77.107" height="34.06"/>
</g>
<g>
	<rect x="4589.691" y="2288.225" fill="#EAEAEA" width="49.591" height="34.045"/>
	<rect x="4589.691" y="2223.598" fill="#EAEAEA" width="49.591" height="34.073"/>
	<rect x="4589.691" y="2255.911" fill="#D6AD66" width="49.591" height="34.06"/>
</g>
<g>
	<rect x="4683.285" y="2291.716" fill="#EAEAEA" width="49.592" height="34.048"/>
	<rect x="4683.285" y="2227.092" fill="#EAEAEA" width="49.592" height="34.073"/>
	<rect x="4683.285" y="2259.404" fill="#D6AD66" width="49.592" height="34.06"/>
</g>
<g>
	<rect x="4843.787" y="2023.436" fill="#EAEAEA" width="49.588" height="34.045"/>
	<rect x="4843.787" y="1958.812" fill="#EAEAEA" width="49.588" height="34.071"/>
	<rect x="4843.787" y="1991.123" fill="#D6AD66" width="49.588" height="34.059"/>
</g>
<g>
	<rect x="4912.59" y="2021.139" fill="#EAEAEA" width="49.591" height="34.045"/>
	<rect x="4912.59" y="1956.514" fill="#EAEAEA" width="49.591" height="34.072"/>
	<rect x="4912.59" y="1988.825" fill="#D6AD66" width="49.591" height="34.059"/>
</g>
<g>
	<rect x="4983.676" y="2018.854" fill="#EAEAEA" width="49.592" height="34.045"/>
	<rect x="4983.676" y="1954.23" fill="#EAEAEA" width="49.592" height="34.071"/>
	<rect x="4983.676" y="1986.542" fill="#D6AD66" width="49.592" height="34.059"/>
</g>
<g>
	<rect x="4133.367" y="2244.665" fill="#EAEAEA" width="77.105" height="34.046"/>
	<rect x="4133.367" y="2180.041" fill="#EAEAEA" width="77.105" height="34.071"/>
	<rect x="4133.367" y="2212.354" fill="#D6AD66" width="77.105" height="34.06"/>
</g>
<g>
	<rect x="4220.511" y="2242.368" fill="#EAEAEA" width="77.105" height="34.045"/>
	<rect x="4220.511" y="2177.743" fill="#EAEAEA" width="77.105" height="34.071"/>
	<rect x="4220.511" y="2210.055" fill="#D6AD66" width="77.105" height="34.062"/>
</g>
<g>
	<rect x="3911.653" y="1952.334" fill="#EAEAEA" width="34.045" height="77.107"/>
	<rect x="3976.252" y="1952.334" fill="#EAEAEA" width="34.074" height="77.107"/>
	<rect x="3943.953" y="1952.334" fill="#D6AD66" width="34.059" height="77.107"/>
</g>
<g>
	<rect x="4157.002" y="1956.93" fill="#EAEAEA" width="34.043" height="77.105"/>
	<rect x="4221.598" y="1956.93" fill="#EAEAEA" width="34.074" height="77.105"/>
	<rect x="4189.3" y="1956.93" fill="#D6AD66" width="34.058" height="77.105"/>
</g>
<rect x="2326.916" y="1461.413" fill="#090707" width="119.227" height="103.185"/>
<rect x="2856.6" y="1498.105" fill="#090707" width="116.941" height="110.064"/>
<rect x="2338.377" y="1729.694" fill="#090707" width="110.062" height="34.396"/>
<rect x="2251.247" y="1472.887" fill="#090707" width="45.855" height="71.075"/>
<rect x="2771.754" y="1487.788" fill="#090707" width="44.714" height="89.426"/>
<rect x="3081.31" y="1350.206" fill="#090707" width="34.396" height="85.988"/>
<rect x="2475.957" y="1494.665" fill="#090707" width="85.988" height="34.396"/>
<rect x="2198.082" y="1398.334" fill="#090707" width="96.307" height="27.516"/>
<g>
	<rect x="2767.16" y="1725.448" fill="#EAEAEA" width="77.105" height="34.045"/>
	<rect x="2767.16" y="1660.823" fill="#EAEAEA" width="77.105" height="34.073"/>
	<rect x="2767.16" y="1693.135" fill="#D6AD66" width="77.105" height="34.061"/>
</g>
<g>
	<rect x="2239.773" y="1684.174" fill="#EAEAEA" width="49.59" height="34.046"/>
	<rect x="2239.773" y="1619.548" fill="#EAEAEA" width="49.59" height="34.073"/>
	<rect x="2239.773" y="1651.861" fill="#D6AD66" width="49.59" height="34.06"/>
</g>
<g>
	<rect x="2146.181" y="1687.668" fill="#EAEAEA" width="49.591" height="34.044"/>
	<rect x="2146.181" y="1623.042" fill="#EAEAEA" width="49.591" height="34.073"/>
	<rect x="2146.181" y="1655.354" fill="#D6AD66" width="49.591" height="34.061"/>
</g>
<g>
	<rect x="1985.68" y="1419.386" fill="#EAEAEA" width="49.59" height="34.046"/>
	<rect x="1985.68" y="1354.762" fill="#EAEAEA" width="49.59" height="34.072"/>
	<rect x="1985.68" y="1387.074" fill="#D6AD66" width="49.59" height="34.059"/>
</g>
<g>
	<rect x="1916.877" y="1417.089" fill="#EAEAEA" width="49.591" height="34.045"/>
	<rect x="1916.877" y="1352.464" fill="#EAEAEA" width="49.591" height="34.072"/>
	<rect x="1916.877" y="1384.776" fill="#D6AD66" width="49.591" height="34.059"/>
</g>
<g>
	<rect x="1845.789" y="1414.804" fill="#EAEAEA" width="49.592" height="34.046"/>
	<rect x="1845.789" y="1350.181" fill="#EAEAEA" width="49.592" height="34.071"/>
	<rect x="1845.789" y="1382.492" fill="#D6AD66" width="49.592" height="34.059"/>
</g>
<g>
	<rect x="2668.582" y="1640.616" fill="#EAEAEA" width="77.107" height="34.045"/>
	<rect x="2668.582" y="1575.991" fill="#EAEAEA" width="77.107" height="34.073"/>
	<rect x="2668.582" y="1608.304" fill="#D6AD66" width="77.107" height="34.06"/>
</g>
<g>
	<rect x="2581.438" y="1638.319" fill="#EAEAEA" width="77.107" height="34.046"/>
	<rect x="2581.438" y="1573.693" fill="#EAEAEA" width="77.107" height="34.071"/>
	<rect x="2581.438" y="1606.007" fill="#D6AD66" width="77.107" height="34.061"/>
</g>
<g>
	<rect x="2933.356" y="1348.285" fill="#EAEAEA" width="34.045" height="77.105"/>
	<rect x="2868.731" y="1348.285" fill="#EAEAEA" width="34.072" height="77.105"/>
	<rect x="2901.043" y="1348.285" fill="#D6AD66" width="34.061" height="77.105"/>
</g>
<g>
	<rect x="2688.012" y="1352.882" fill="#EAEAEA" width="34.044" height="77.105"/>
	<rect x="2623.386" y="1352.882" fill="#EAEAEA" width="34.073" height="77.105"/>
	<rect x="2655.697" y="1352.882" fill="#D6AD66" width="34.06" height="77.105"/>
</g>
<g>
	<rect x="5412.729" y="3097.393" fill="#EAEAEA" width="49.59" height="34.047"/>
	<rect x="5412.729" y="3161.994" fill="#EAEAEA" width="49.59" height="34.072"/>
	<rect x="5412.729" y="3129.694" fill="#D6AD66" width="49.59" height="34.06"/>
</g>
<g>
	<rect x="5467.76" y="3099.689" fill="#EAEAEA" width="49.592" height="34.047"/>
	<rect x="5467.76" y="3164.289" fill="#EAEAEA" width="49.592" height="34.075"/>
	<rect x="5467.76" y="3131.991" fill="#D6AD66" width="49.592" height="34.057"/>
</g>
<g>
	<rect x="5529.672" y="3099.689" fill="#EAEAEA" width="49.592" height="34.047"/>
	<rect x="5529.672" y="3164.289" fill="#EAEAEA" width="49.592" height="34.075"/>
	<rect x="5529.672" y="3131.991" fill="#D6AD66" width="49.592" height="34.057"/>
</g>
<g>
	<rect x="5579.545" y="2646.819" fill="#EAEAEA" width="49.59" height="34.046"/>
	<rect x="5579.545" y="2711.417" fill="#EAEAEA" width="49.59" height="34.073"/>
	<rect x="5579.545" y="2679.117" fill="#D6AD66" width="49.59" height="34.06"/>
</g>
<g>
	<rect x="5634.578" y="2649.117" fill="#EAEAEA" width="49.59" height="34.044"/>
	<rect x="5634.578" y="2713.715" fill="#EAEAEA" width="49.59" height="34.073"/>
	<rect x="5634.578" y="2681.416" fill="#D6AD66" width="49.59" height="34.059"/>
</g>
<g>
	<rect x="5696.485" y="2649.117" fill="#EAEAEA" width="49.592" height="34.044"/>
	<rect x="5696.485" y="2713.715" fill="#EAEAEA" width="49.592" height="34.073"/>
	<rect x="5696.485" y="2681.416" fill="#D6AD66" width="49.592" height="34.059"/>
</g>
<g>
	<rect x="5826.006" y="2861.707" fill="#EAEAEA" width="34.043" height="49.59"/>
	<rect x="5761.381" y="2861.707" fill="#EAEAEA" width="34.07" height="49.59"/>
	<rect x="5793.692" y="2861.707" fill="#D6AD66" width="34.06" height="49.59"/>
</g>
<g>
	<rect x="5823.709" y="2916.739" fill="#EAEAEA" width="34.047" height="49.591"/>
	<rect x="5759.082" y="2916.739" fill="#EAEAEA" width="34.076" height="49.591"/>
	<rect x="5791.396" y="2916.739" fill="#D6AD66" width="34.059" height="49.591"/>
</g>
<g>
	<rect x="5823.709" y="2978.65" fill="#EAEAEA" width="34.047" height="49.591"/>
	<rect x="5759.082" y="2978.65" fill="#EAEAEA" width="34.076" height="49.591"/>
	<rect x="5791.396" y="2978.65" fill="#D6AD66" width="34.059" height="49.591"/>
</g>
<g>
	<polygon fill="#EAE7D9" points="2550.055,4129.032 1917.186,4129.032 1917.186,4154.248 1869.03,4154.248 1869.03,4225.337 
		2611.965,4225.337 2611.965,4154.248 2550.055,4154.248 	"/>
	<polygon fill="#EAE7D9" points="1917.186,4129.032 1917.186,4062.538 1862.153,4062.538 1862.153,4154.248 1869.03,4154.248 
		1917.186,4154.248 	"/>
	<polygon fill="#EAE7D9" points="2550.055,4080.878 2550.055,4129.032 2550.055,4154.248 2611.965,4154.248 2611.965,4129.032 
		2611.965,4080.878 	"/>
</g>
<g>
	<polygon fill="#EAE7D9" points="2891.466,3512.418 2258.609,3512.418 2258.609,3537.638 2210.456,3537.638 2210.456,3608.725 
		2953.375,3608.725 2953.375,3537.638 2891.466,3537.638 	"/>
	<polygon fill="#EAE7D9" points="2258.609,3512.418 2258.609,3445.925 2203.577,3445.925 2203.577,3537.638 2210.456,3537.638 
		2258.609,3537.638 	"/>
	<polygon fill="#EAE7D9" points="2891.466,3464.265 2891.466,3512.418 2891.466,3537.638 2953.375,3537.638 2953.375,3512.418 
		2953.375,3464.265 	"/>
</g>
</svg>
