<?xml version="1.0" encoding="utf-8"?>
<!-- Generator: Adobe Illustrator 16.0.0, SVG Export Plug-In . SVG Version: 6.00 Build 0)  -->
<!DOCTYPE svg PUBLIC "-//W3C//DTD SVG 1.1//EN" "http://www.w3.org/Graphics/SVG/1.1/DTD/svg11.dtd">
<svg version="1.1" id="Layer_1" xmlns="http://www.w3.org/2000/svg" xmlns:xlink="http://www.w3.org/1999/xlink" x="0px" y="0px"
	 width="115px" height="80px" viewBox="252.5 358.5 115 80" enable-background="new 252.5 358.5 115 80" xml:space="preserve">
<path d="M260,399.76c0.456-2.076,0.853-4.167,1.375-6.226c4.09-16.118,17.322-27.875,33.728-29.982
	c0.579-0.075,1.175-0.01,1.557-0.01c-2.607,3.146-5.574,6.153-7.836,9.62c-2.224,3.407-3.732,7.282-5.726,11.295
	c1.733,0.334,2.844,0.51,3.936,0.765c10.676,2.492,17.899,12.351,17.077,23.286c-0.791,10.513-9.538,19.4-19.888,20.207
	c-11.289,0.881-21.202-6.282-23.704-17.118c-0.134-0.581-0.344-1.145-0.519-1.717C260,406.507,260,403.133,260,399.76z"/>
<path d="M352,409.88c-0.15,0.421-0.352,0.83-0.444,1.263c-2.402,11.241-12.555,18.674-23.993,17.551
	c-11.078-1.088-19.566-10.692-19.749-22.021c-0.24-14.944,5.037-27.203,17.185-36.191c5.405-3.999,11.571-6.174,18.23-6.967
	c0.488-0.058,0.99-0.008,1.951-0.008c-6.806,5.818-11.374,12.598-13.728,21.065c1.27,0.24,2.395,0.381,3.48,0.671
	c8.669,2.311,14.15,7.833,16.5,16.479c0.196,0.724,0.378,1.451,0.566,2.177C352,405.894,352,407.887,352,409.88z"/>
</svg>
