<?xml version="1.0" encoding="utf-8"?>
<!-- Generator: Adobe Illustrator 16.0.0, SVG Export Plug-In . SVG Version: 6.00 Build 0)  -->
<!DOCTYPE svg PUBLIC "-//W3C//DTD SVG 1.1//EN" "http://www.w3.org/Graphics/SVG/1.1/DTD/svg11.dtd">
<svg version="1.1" id="Layer_1" xmlns="http://www.w3.org/2000/svg" xmlns:xlink="http://www.w3.org/1999/xlink" x="0px" y="0px"
	 width="115px" height="151px" viewBox="254.5 284.5 115 151" enable-background="new 254.5 284.5 115 151" xml:space="preserve">
<path d="M349,391.765c-0.426,1.941-0.797,3.895-1.286,5.82c-3.823,15.066-16.192,26.057-31.528,28.026
	c-0.54,0.07-1.098,0.01-1.455,0.01c2.438-2.94,5.211-5.752,7.325-8.992c2.079-3.186,3.489-6.807,5.353-10.559
	c-1.62-0.313-2.658-0.477-3.679-0.715c-9.979-2.33-16.731-11.545-15.964-21.768c0.74-9.827,8.916-18.134,18.591-18.889
	c10.553-0.823,19.819,5.873,22.158,16.002c0.126,0.543,0.322,1.07,0.485,1.604C349,385.458,349,388.612,349,391.765z"/>
<path d="M263,382.305c0.141-0.393,0.329-0.775,0.416-1.18c2.245-10.508,11.736-17.456,22.428-16.406
	c10.355,1.017,18.291,9.995,18.461,20.584c0.225,13.969-4.708,25.428-16.063,33.831c-5.053,3.738-10.816,5.771-17.041,6.513
	c-0.457,0.055-0.926,0.008-1.824,0.008c6.362-5.438,10.632-11.776,12.832-19.692c-1.187-0.225-2.238-0.356-3.253-0.627
	c-8.104-2.16-13.228-7.321-15.423-15.404c-0.184-0.676-0.354-1.356-0.53-2.035C263,386.032,263,384.168,263,382.305z"/>
</svg>
