<?xml version="1.0" encoding="utf-8"?>
<!-- Generator: Adobe Illustrator 16.0.0, SVG Export Plug-In . SVG Version: 6.00 Build 0)  -->
<!DOCTYPE svg PUBLIC "-//W3C//DTD SVG 1.1//EN" "http://www.w3.org/Graphics/SVG/1.1/DTD/svg11.dtd">
<svg version="1.1" id="Layer_1" xmlns="http://www.w3.org/2000/svg" xmlns:xlink="http://www.w3.org/1999/xlink" x="0px" y="0px"
	 width="144px" height="128.16px" viewBox="0 0 144 128.16" enable-background="new 0 0 144 128.16" xml:space="preserve">
<g>
	<path fill="#CECECE" d="M112.232,19.706c0.837,0.341,1.672,0.683,2.51,1.023c0.237,0.111,0.474,0.222,0.71,0.333
		c0.825,0.37,1.628,0.795,2.519,0.996c0.137,0.222,0.369,0.228,0.589,0.263c1.203,0.405,0.666,1.454,0.832,2.244
		c0.004,0.385,0.005,0.77,0.009,1.155c-0.004,1.147-0.005,2.295-0.009,3.441c0.004,0.385,0.005,0.77,0.009,1.156
		c-0.004,1.147-0.005,2.293-0.009,3.441c0.004,0.385,0.005,0.77,0.009,1.155c-0.004,1.146-0.005,2.294-0.009,3.441
		c0.004,0.385,0.005,0.771,0.009,1.155c-0.004,1.148-0.005,2.295-0.009,3.442c0.004,0.385,0.005,0.771,0.009,1.155
		c-0.004,1.147-0.005,2.295-0.009,3.442c0.004,0.385,0.005,0.77,0.009,1.155c-0.004,1.146-0.005,2.293-0.009,3.441
		c0.004,0.385,0.005,0.771,0.009,1.155c-0.004,1.147-0.005,2.294-0.009,3.441c0.004,0.385,0.005,0.771,0.009,1.156
		c-0.004,1.146-0.005,2.293-0.009,3.441c0.004,0.385,0.005,0.77,0.009,1.155c-0.004,1.147-0.005,2.295-0.009,3.44
		c0.004,0.386,0.005,0.771,0.009,1.157c-0.015,1.147-0.032,2.295-0.045,3.444c-0.011,0.382-0.018,0.764-0.024,1.146
		c-0.177,1.308-0.352,2.614-0.528,3.922c-0.104,0.533-0.209,1.066-0.314,1.602c-0.409,1.532-0.82,3.064-1.229,4.593
		c-0.311,0.58-0.532,1.192-0.642,1.842c-1.018,2.165-1.946,4.371-3.14,6.452c-0.587,0.983-1.179,1.963-1.769,2.944
		c-5.152,7.542-11.738,13.646-19.047,19.029c-1.225,0.822-2.449,1.646-3.676,2.467c-4.212,2.64-8.504,5.134-13.039,7.188
		c-0.129,0.059-0.293,0.1-0.264,0.301c-0.153,0-0.308,0-0.459,0c0.002-3.071,0.002-6.142,0.006-9.213
		c0.02-0.06,0.032-0.121,0.043-0.184c0.445,0.02,0.804-0.217,1.181-0.399c2.131-1.044,4.183-2.229,6.209-3.455
		c8.198-4.966,15.656-10.821,21.452-18.539c4.943-6.582,7.974-13.876,7.909-22.311c-0.096-12.784-0.039-25.571,0-38.357
		c0.002-1.032-0.376-1.451-1.282-1.81c-9.015-3.571-18.008-7.203-27.023-10.777c-2.799-1.111-5.535-2.392-8.433-3.256
		c-0.009-0.064-0.025-0.126-0.053-0.187c-0.003-3.064-0.007-6.129-0.009-9.193c0.151,0,0.306,0,0.459,0
		c-0.015,0.201,0.145,0.234,0.278,0.29c3.195,1.318,6.389,2.635,9.585,3.952c0.237,0.103,0.477,0.207,0.715,0.31
		c0.817,0.385,1.627,0.793,2.515,1.007c0.234,0.117,0.471,0.233,0.705,0.349c0.83,0.359,1.632,0.79,2.523,0.99
		c0.161,0.225,0.412,0.249,0.652,0.302c0.827,0.418,1.662,0.816,2.561,1.053c0.19,0.182,0.417,0.276,0.679,0.281
		c0.699,0.42,1.453,0.708,2.231,0.934c0.396,0.176,0.792,0.354,1.186,0.53c0.693,0.276,1.386,0.55,2.08,0.826
		c0.235,0.105,0.471,0.21,0.705,0.314c0.918,0.382,1.832,0.765,2.747,1.148c0.179,0.071,0.356,0.143,0.535,0.213
		c0.866,0.449,1.753,0.851,2.699,1.11c0.271,0.228,0.586,0.352,0.935,0.402c0.835,0.355,1.667,0.711,2.501,1.066
		C111.753,19.511,111.993,19.609,112.232,19.706z"/>
	<path fill="#CECECE" d="M75.229,112.809c-0.002,3.072-0.004,6.144-0.006,9.214c-0.076,0-0.154,0-0.23,0
		c-2.296-1.151-4.594-2.307-6.89-3.458c-0.173-0.101-0.344-0.2-0.515-0.3c-0.75-0.432-1.498-0.864-2.248-1.297
		c-0.293-0.177-0.586-0.353-0.88-0.53c-0.602-0.37-1.204-0.741-1.806-1.111c-0.207-0.267-0.495-0.408-0.806-0.51
		c-0.82-0.542-1.638-1.088-2.458-1.631c-0.163-0.113-0.327-0.23-0.49-0.345c-0.628-0.557-1.302-1.048-2.044-1.444
		c-0.239-0.191-0.477-0.382-0.716-0.575c-0.68-0.509-1.358-1.016-2.039-1.524c-0.157-0.129-0.315-0.257-0.474-0.389
		c-0.651-0.602-1.288-1.219-2.054-1.678c-0.154-0.135-0.309-0.272-0.463-0.408c-0.539-0.627-1.152-1.165-1.839-1.625
		c-0.231-0.223-0.462-0.447-0.693-0.671c-0.403-0.514-0.863-0.969-1.397-1.348c-0.303-0.31-0.607-0.619-0.91-0.929
		c-0.449-0.463-0.898-0.926-1.347-1.388c-0.214-0.234-0.429-0.467-0.644-0.703c-0.423-0.713-1.04-1.259-1.591-1.863
		c-0.255-0.308-0.509-0.616-0.764-0.925c-0.396-0.514-0.794-1.029-1.192-1.542c-0.227-0.306-0.453-0.607-0.682-0.913
		c-0.433-0.629-0.867-1.26-1.303-1.891c-0.152-0.223-0.306-0.448-0.46-0.677c-0.406-0.68-0.813-1.361-1.22-2.042
		c-0.072-0.279-0.199-0.523-0.436-0.696c-0.305-0.808-0.679-1.582-1.169-2.292c-0.116-0.238-0.23-0.476-0.346-0.711
		c-0.355-0.836-0.712-1.671-1.07-2.506c-0.128-0.31-0.256-0.623-0.386-0.935c-0.127-0.804-0.454-1.541-0.757-2.283
		c-0.115-0.391-0.229-0.784-0.342-1.177c-0.195-0.833-0.391-1.667-0.586-2.498c-0.081-0.386-0.161-0.773-0.242-1.158
		c-0.144-0.994-0.288-1.988-0.431-2.981c0.017-0.398,0.056-0.801-0.164-1.164c-0.026-1.069-0.052-2.135-0.078-3.203
		c-0.004-0.385-0.009-0.77-0.013-1.155c0.003-1.148,0.008-2.293,0.013-3.44c-0.004-0.385-0.009-0.771-0.013-1.156
		c0.003-1.147,0.008-2.294,0.013-3.44c-0.004-0.385-0.009-0.771-0.013-1.156c0.003-1.147,0.008-2.293,0.013-3.44
		c-0.004-0.385-0.009-0.771-0.013-1.155c0.003-1.147,0.008-2.294,0.013-3.441c-0.004-0.385-0.009-0.771-0.013-1.156
		c0.003-1.146,0.008-2.294,0.013-3.441c-0.004-0.386-0.009-0.771-0.013-1.156c0.003-1.147,0.008-2.293,0.013-3.441
		c-0.004-0.385-0.009-0.771-0.013-1.155c0.003-1.147,0.008-2.293,0.013-3.44c-0.004-0.386-0.009-0.771-0.013-1.155
		c0.003-1.148,0.008-2.295,0.013-3.442c-0.004-0.385-0.009-0.77-0.013-1.155c0.003-1.146,0.008-2.294,0.013-3.441
		c-0.004-0.385-0.009-0.771-0.013-1.155c0.021-1.147,0.043-2.294,0.063-3.44c0.076-0.056,0.153-0.111,0.229-0.167
		c2.027-0.77,4.041-1.565,5.994-2.511c0.634-0.17,1.244-0.397,1.802-0.749c2.04-0.74,4.04-1.575,5.993-2.518
		c0.645-0.15,1.257-0.388,1.824-0.733c2.027-0.757,4.035-1.561,5.975-2.521c0.73-0.15,1.389-0.477,2.05-0.8
		c1.922-0.804,3.845-1.609,5.766-2.414c0.696-0.289,1.447-0.452,2.067-0.913c1.636-0.462,3.149-1.233,4.712-1.878
		c2.502-1.033,4.981-2.124,7.471-3.19c0.076,0,0.154,0,0.23,0c0.002,3.065,0.006,6.13,0.009,9.194
		c-6.838,2.75-13.671,5.51-20.514,8.245c-4.929,1.968-9.867,3.912-14.808,5.847c-1.012,0.396-1.511,0.894-1.503,2.157
		c0.068,13.206,0.018,26.415,0.075,39.622c0.01,2.263,0.257,4.549,0.852,6.747c1.158,4.27,2.984,8.249,5.457,11.928
		c3.375,5.025,7.574,9.278,12.229,13.107C62.62,105.794,68.704,109.65,75.229,112.809z"/>
	<path fill="#CECECE" d="M75.229,112.809c-6.525-3.158-12.609-7.014-18.21-11.618c-4.654-3.831-8.854-8.084-12.229-13.107
		c-2.472-3.681-4.299-7.66-5.457-11.931c-0.595-2.197-0.842-4.483-0.852-6.745c-0.057-13.207-0.007-26.414-0.075-39.621
		c-0.006-1.264,0.493-1.762,1.503-2.158c4.941-1.935,9.879-3.879,14.808-5.848c6.843-2.735,13.676-5.496,20.514-8.244
		c0.027,0.059,0.044,0.121,0.053,0.187c-0.021,0.497-0.06,0.992-0.06,1.49c-0.005,15.926-0.007,31.852-0.01,47.776
		c-0.073,0.027-0.147,0.035-0.225,0.024c-0.21-0.33-0.476-0.606-0.818-0.802c-0.178-0.31-0.424-0.555-0.733-0.735
		c-0.442-0.6-0.964-1.122-1.565-1.563c-0.179-0.31-0.424-0.555-0.733-0.734c-0.443-0.601-0.964-1.122-1.565-1.565
		c-0.179-0.31-0.423-0.555-0.733-0.733c-0.442-0.6-0.964-1.123-1.565-1.564c-0.179-0.31-0.424-0.555-0.734-0.734
		c-0.443-0.601-0.964-1.123-1.564-1.565c-0.471-0.887-0.931-0.839-1.598-0.119c-1.269,1.367-2.592,2.69-3.958,3.958
		c-0.718,0.666-0.772,1.127,0.117,1.597c0.442,0.602,0.964,1.123,1.564,1.565c0.179,0.31,0.424,0.555,0.733,0.734
		c0.443,0.601,0.965,1.123,1.565,1.564c0.179,0.311,0.423,0.555,0.733,0.734c0.443,0.601,0.964,1.122,1.565,1.566
		c0.179,0.309,0.424,0.555,0.734,0.732c0.443,0.602,0.964,1.122,1.564,1.566c0.179,0.309,0.424,0.554,0.734,0.731
		c1.189,1.479,2.636,2.705,3.951,4.062c0.841,0.818,1.683,1.639,2.522,2.456c0.006,5.972,0.006,11.941,0.017,17.913
		c0.012,6.85,0.033,13.699,0.05,20.55C75.263,112.688,75.249,112.749,75.229,112.809z"/>
	<path fill="#CECECE" d="M75.218,62.987c0.002-15.926,0.004-31.852,0.009-47.777c0-0.498,0.039-0.993,0.058-1.49
		c2.897,0.865,5.636,2.145,8.434,3.256c9.016,3.575,18.008,7.206,27.024,10.777c0.906,0.359,1.283,0.778,1.281,1.81
		c-0.039,12.786-0.097,25.573,0,38.358c0.063,8.435-2.966,15.727-7.908,22.31c-5.797,7.717-13.255,13.572-21.454,18.539
		c-2.024,1.228-4.078,2.41-6.207,3.456c-0.377,0.181-0.736,0.417-1.182,0.397c-0.017-6.849-0.037-13.699-0.05-20.55
		c-0.01-5.971-0.01-11.94-0.016-17.912c7.694-7.689,15.379-15.388,23.093-23.057c0.635-0.631,0.689-1.003,0.016-1.628
		c-1.348-1.248-2.657-2.545-3.903-3.894c-0.605-0.652-0.939-0.682-1.59-0.024c-5.523,5.581-11.087,11.123-16.646,16.667
		C75.889,62.511,75.688,62.927,75.218,62.987z"/>
</g>
<g>
	<path fill="#415A6D" d="M108.478,16.365c0.837,0.342,1.672,0.684,2.51,1.024c0.237,0.11,0.475,0.222,0.71,0.333
		c0.826,0.369,1.628,0.794,2.519,0.995c0.137,0.222,0.369,0.227,0.59,0.263c1.202,0.406,0.667,1.455,0.832,2.244
		c0.003,0.386,0.005,0.771,0.008,1.155c-0.003,1.147-0.005,2.295-0.008,3.442c0.003,0.385,0.005,0.77,0.008,1.155
		c-0.003,1.147-0.005,2.293-0.008,3.441c0.003,0.385,0.005,0.77,0.008,1.155c-0.003,1.147-0.005,2.294-0.008,3.441
		c0.003,0.385,0.005,0.771,0.008,1.156c-0.003,1.147-0.005,2.294-0.008,3.441c0.003,0.385,0.005,0.771,0.008,1.155
		c-0.003,1.147-0.005,2.295-0.008,3.442c0.003,0.385,0.005,0.77,0.008,1.155c-0.003,1.146-0.005,2.293-0.008,3.441
		c0.003,0.385,0.005,0.77,0.008,1.155c-0.003,1.147-0.005,2.294-0.008,3.441c0.003,0.385,0.005,0.77,0.008,1.156
		c-0.003,1.146-0.005,2.293-0.008,3.441c0.003,0.385,0.005,0.77,0.008,1.155c-0.003,1.148-0.005,2.295-0.008,3.441
		c0.003,0.386,0.005,0.77,0.008,1.157c-0.015,1.146-0.03,2.295-0.045,3.443c-0.01,0.383-0.018,0.765-0.024,1.147
		c-0.175,1.307-0.352,2.614-0.526,3.922c-0.106,0.532-0.211,1.067-0.315,1.602c-0.41,1.531-0.819,3.064-1.23,4.594
		c-0.311,0.578-0.531,1.19-0.641,1.841c-1.018,2.164-1.947,4.371-3.14,6.453c-0.587,0.981-1.178,1.962-1.769,2.942
		c-5.152,7.542-11.739,13.646-19.048,19.029c-1.225,0.822-2.449,1.646-3.675,2.468c-4.212,2.639-8.505,5.135-13.04,7.188
		c-0.129,0.058-0.293,0.1-0.263,0.301c-0.154,0-0.308,0-0.459,0c0.002-3.071,0.002-6.141,0.006-9.213
		c0.02-0.061,0.033-0.12,0.042-0.184c0.446,0.02,0.804-0.216,1.182-0.4c2.13-1.043,4.183-2.227,6.209-3.454
		c8.198-4.966,15.655-10.822,21.452-18.539c4.942-6.583,7.974-13.875,7.908-22.311c-0.096-12.784-0.038-25.571,0-38.357
		c0.002-1.032-0.376-1.452-1.281-1.811c-9.016-3.571-18.009-7.202-27.024-10.777c-2.799-1.111-5.534-2.391-8.432-3.256
		c-0.009-0.064-0.025-0.126-0.053-0.186C71.476,7.129,71.472,4.064,71.47,1c0.152,0,0.306,0,0.459,0
		c-0.016,0.2,0.145,0.234,0.278,0.29c3.195,1.317,6.388,2.635,9.584,3.952c0.238,0.102,0.477,0.206,0.716,0.309
		c0.818,0.385,1.627,0.793,2.514,1.007c0.234,0.116,0.472,0.232,0.706,0.349c0.829,0.358,1.631,0.79,2.522,0.99
		c0.161,0.225,0.412,0.25,0.653,0.302c0.827,0.419,1.662,0.816,2.561,1.053c0.19,0.183,0.417,0.277,0.679,0.281
		c0.699,0.42,1.453,0.708,2.23,0.934c0.396,0.176,0.792,0.353,1.186,0.53c0.693,0.275,1.386,0.55,2.08,0.826
		c0.235,0.105,0.471,0.21,0.706,0.313c0.917,0.383,1.831,0.765,2.746,1.148c0.18,0.071,0.357,0.143,0.535,0.213
		c0.868,0.449,1.753,0.851,2.7,1.109c0.271,0.229,0.586,0.353,0.936,0.402c0.833,0.355,1.666,0.711,2.499,1.066
		C107.999,16.172,108.24,16.269,108.478,16.365z"/>
	<path fill="#647A89" d="M71.474,109.469c-0.001,3.073-0.003,6.144-0.005,9.215c-0.077,0-0.153,0-0.23,0
		c-2.296-1.152-4.593-2.308-6.89-3.46c-0.172-0.1-0.344-0.199-0.515-0.298c-0.75-0.432-1.499-0.864-2.248-1.297
		c-0.293-0.179-0.587-0.354-0.881-0.531c-0.602-0.37-1.204-0.741-1.806-1.112c-0.207-0.266-0.495-0.406-0.805-0.509
		c-0.82-0.542-1.638-1.088-2.458-1.631c-0.163-0.113-0.327-0.229-0.49-0.345c-0.628-0.557-1.302-1.048-2.044-1.444
		c-0.239-0.191-0.477-0.381-0.716-0.575c-0.68-0.509-1.358-1.016-2.039-1.524c-0.158-0.129-0.316-0.258-0.475-0.388
		c-0.65-0.603-1.287-1.221-2.053-1.679c-0.154-0.136-0.309-0.272-0.464-0.407c-0.539-0.628-1.152-1.167-1.839-1.626
		c-0.231-0.224-0.462-0.447-0.694-0.672c-0.403-0.513-0.863-0.967-1.397-1.346c-0.303-0.312-0.607-0.62-0.91-0.931
		c-0.449-0.462-0.898-0.925-1.347-1.388c-0.214-0.233-0.429-0.466-0.644-0.702c-0.423-0.712-1.04-1.259-1.591-1.863
		c-0.255-0.307-0.509-0.616-0.764-0.925c-0.396-0.514-0.795-1.029-1.192-1.541c-0.227-0.306-0.454-0.608-0.681-0.914
		c-0.434-0.63-0.868-1.26-1.303-1.891c-0.152-0.223-0.306-0.448-0.46-0.677c-0.407-0.68-0.813-1.361-1.22-2.042
		c-0.072-0.278-0.198-0.523-0.436-0.697c-0.304-0.808-0.679-1.581-1.169-2.291c-0.115-0.239-0.23-0.477-0.346-0.712
		c-0.356-0.835-0.712-1.669-1.069-2.505c-0.128-0.311-0.257-0.623-0.386-0.935c-0.127-0.803-0.453-1.54-0.757-2.284
		c-0.114-0.389-0.228-0.783-0.342-1.176c-0.194-0.834-0.391-1.667-0.586-2.498c-0.081-0.387-0.162-0.772-0.243-1.157
		c-0.144-0.995-0.287-1.988-0.431-2.982c0.017-0.398,0.056-0.801-0.164-1.165c-0.027-1.069-0.053-2.134-0.078-3.202
		c-0.004-0.385-0.009-0.771-0.013-1.155c0.003-1.148,0.008-2.293,0.013-3.44c-0.004-0.385-0.009-0.771-0.013-1.156
		c0.003-1.147,0.008-2.293,0.013-3.44c-0.004-0.385-0.009-0.771-0.013-1.156c0.003-1.147,0.008-2.293,0.013-3.44
		c-0.004-0.385-0.009-0.771-0.013-1.155c0.003-1.148,0.008-2.295,0.013-3.442c-0.004-0.384-0.009-0.771-0.013-1.155
		c0.003-1.147,0.008-2.295,0.013-3.441c-0.004-0.385-0.009-0.771-0.013-1.155c0.003-1.147,0.008-2.294,0.013-3.442
		c-0.004-0.384-0.009-0.771-0.013-1.155c0.003-1.147,0.008-2.294,0.013-3.44c-0.004-0.385-0.009-0.771-0.013-1.155
		c0.003-1.148,0.008-2.295,0.013-3.442c-0.004-0.384-0.009-0.77-0.013-1.155c0.003-1.146,0.008-2.294,0.013-3.441
		c-0.004-0.385-0.009-0.771-0.013-1.155c0.021-1.147,0.043-2.294,0.063-3.44c0.076-0.056,0.153-0.111,0.229-0.167
		c2.026-0.77,4.041-1.566,5.993-2.511c0.635-0.17,1.245-0.397,1.803-0.749c2.04-0.74,4.04-1.575,5.993-2.518
		c0.645-0.151,1.257-0.388,1.824-0.733c2.026-0.757,4.034-1.561,5.975-2.522c0.73-0.149,1.389-0.477,2.05-0.8
		c1.922-0.804,3.844-1.608,5.766-2.413c0.696-0.29,1.447-0.453,2.067-0.913c1.636-0.462,3.148-1.233,4.712-1.878
		c2.502-1.034,4.982-2.123,7.471-3.189c0.077,0,0.154,0,0.23,0c0.002,3.064,0.005,6.129,0.009,9.193
		c-6.838,2.75-13.672,5.51-20.514,8.245c-4.929,1.969-9.867,3.912-14.809,5.848c-1.011,0.395-1.51,0.894-1.502,2.157
		c0.068,13.207,0.018,26.414,0.075,39.623c0.01,2.262,0.257,4.547,0.852,6.745c1.158,4.271,2.985,8.25,5.457,11.93
		c3.375,5.024,7.575,9.276,12.229,13.107C58.866,102.454,64.949,106.31,71.474,109.469z"/>
	<path fill="#41BE9B" d="M71.474,109.469c-6.524-3.159-12.608-7.013-18.209-11.619c-4.654-3.83-8.855-8.083-12.229-13.106
		c-2.472-3.681-4.299-7.659-5.457-11.931c-0.595-2.196-0.841-4.483-0.852-6.745c-0.057-13.207-0.006-26.414-0.075-39.622
		c-0.007-1.263,0.492-1.762,1.502-2.157c4.942-1.935,9.88-3.88,14.809-5.848c6.842-2.736,13.676-5.496,20.514-8.245
		c0.027,0.059,0.044,0.122,0.052,0.187c-0.021,0.496-0.06,0.992-0.06,1.489c-0.005,15.926-0.007,31.852-0.009,47.777
		c-0.073,0.027-0.148,0.035-0.225,0.025c-0.21-0.331-0.476-0.606-0.818-0.802c-0.178-0.311-0.425-0.555-0.734-0.734
		c-0.442-0.601-0.964-1.123-1.564-1.564c-0.18-0.31-0.424-0.555-0.734-0.733c-0.442-0.601-0.963-1.123-1.564-1.565
		c-0.179-0.31-0.424-0.554-0.734-0.733c-0.441-0.601-0.964-1.123-1.564-1.565c-0.179-0.31-0.424-0.555-0.734-0.733
		c-0.442-0.601-0.963-1.123-1.564-1.565c-0.47-0.886-0.93-0.838-1.597-0.119c-1.269,1.367-2.591,2.689-3.958,3.958
		c-0.718,0.665-0.771,1.126,0.117,1.597c0.442,0.602,0.963,1.123,1.564,1.564c0.179,0.31,0.424,0.555,0.733,0.734
		c0.443,0.602,0.964,1.123,1.565,1.565c0.179,0.31,0.423,0.555,0.733,0.734c0.443,0.601,0.964,1.122,1.564,1.565
		c0.179,0.309,0.424,0.554,0.734,0.733c0.443,0.601,0.964,1.122,1.565,1.565c0.179,0.31,0.423,0.555,0.733,0.731
		c1.189,1.48,2.637,2.706,3.951,4.062c0.84,0.818,1.682,1.638,2.522,2.456c0.005,5.972,0.005,11.941,0.016,17.913
		c0.012,6.85,0.033,13.699,0.049,20.549C71.509,109.349,71.494,109.408,71.474,109.469z"/>
	<path fill="#2F968A" d="M71.463,59.647c0.002-15.926,0.004-31.852,0.009-47.776c0-0.498,0.038-0.993,0.059-1.49
		c2.897,0.865,5.634,2.144,8.432,3.255c9.016,3.576,18.008,7.207,27.025,10.778c0.905,0.359,1.282,0.778,1.281,1.81
		c-0.039,12.786-0.098,25.573,0,38.359c0.063,8.436-2.967,15.726-7.908,22.31c-5.798,7.716-13.255,13.572-21.453,18.539
		c-2.026,1.228-4.08,2.41-6.209,3.455c-0.376,0.183-0.736,0.418-1.182,0.398c-0.016-6.85-0.036-13.699-0.049-20.55
		c-0.009-5.971-0.009-11.939-0.015-17.912c7.693-7.689,15.379-15.388,23.092-23.057c0.636-0.631,0.689-1.003,0.016-1.628
		c-1.348-1.248-2.655-2.545-3.903-3.894c-0.604-0.652-0.938-0.682-1.589-0.024c-5.524,5.581-11.086,11.123-16.646,16.667
		C72.134,59.171,71.933,59.586,71.463,59.647z"/>
</g>
</svg>
