<?xml version="1.0" encoding="utf-8"?>
<!-- Generator: Adobe Illustrator 16.0.0, SVG Export Plug-In . SVG Version: 6.00 Build 0)  -->
<!DOCTYPE svg PUBLIC "-//W3C//DTD SVG 1.1//EN" "http://www.w3.org/Graphics/SVG/1.1/DTD/svg11.dtd">
<svg version="1.1" id="Layer_1" xmlns="http://www.w3.org/2000/svg" xmlns:xlink="http://www.w3.org/1999/xlink" x="0px" y="0px"
	 width="144px" height="128.16px" viewBox="0 0 144 128.16" enable-background="new 0 0 144 128.16" xml:space="preserve">
<g>
	<path fill-rule="evenodd" clip-rule="evenodd" fill="#415A6D" d="M113.938,17.399c0.893,0.364,1.784,0.729,2.678,1.092
		c0.253,0.118,0.506,0.237,0.758,0.355c0.881,0.394,1.738,0.848,2.688,1.062c0.146,0.237,0.394,0.243,0.629,0.281
		c1.283,0.433,0.712,1.552,0.888,2.395c0.003,0.411,0.005,0.822,0.009,1.233c-0.004,1.224-0.006,2.449-0.009,3.673
		c0.003,0.411,0.005,0.822,0.009,1.233c-0.004,1.224-0.006,2.448-0.009,3.673c0.003,0.411,0.005,0.822,0.009,1.233
		c-0.004,1.224-0.006,2.448-0.009,3.673c0.003,0.411,0.005,0.822,0.009,1.233c-0.004,1.225-0.006,2.449-0.009,3.673
		c0.003,0.411,0.005,0.822,0.009,1.233c-0.004,1.224-0.006,2.449-0.009,3.673c0.003,0.411,0.005,0.822,0.009,1.233
		c-0.004,1.224-0.006,2.448-0.009,3.673c0.003,0.411,0.005,0.822,0.009,1.233c-0.004,1.224-0.006,2.448-0.009,3.673
		c0.003,0.411,0.005,0.822,0.009,1.233c-0.004,1.224-0.006,2.448-0.009,3.673c0.003,0.411,0.005,0.822,0.009,1.232
		c-0.004,1.225-0.006,2.449-0.009,3.673c0.003,0.412,0.005,0.822,0.009,1.233c-0.016,1.226-0.033,2.451-0.048,3.677
		c-0.01,0.408-0.018,0.815-0.026,1.224c-0.188,1.395-0.376,2.789-0.563,4.186c-0.112,0.568-0.224,1.139-0.336,1.709
		c-0.438,1.634-0.875,3.27-1.312,4.902c-0.333,0.618-0.568,1.271-0.685,1.965c-1.086,2.31-2.078,4.665-3.35,6.886
		c-0.628,1.049-1.258,2.095-1.888,3.142c-5.499,8.049-12.529,14.563-20.329,20.309c-1.307,0.877-2.614,1.757-3.922,2.634
		c-4.495,2.816-9.076,5.479-13.916,7.671c-0.138,0.062-0.313,0.107-0.282,0.321c-0.164,0-0.327,0-0.49,0
		c0.002-3.277,0.003-6.554,0.006-9.833c0.021-0.064,0.036-0.128,0.046-0.195c0.476,0.021,0.858-0.231,1.261-0.427
		c2.273-1.114,4.464-2.377,6.626-3.687c8.75-5.3,16.709-11.55,22.896-19.786c5.275-7.025,8.509-14.808,8.44-23.81
		c-0.103-13.645-0.041-27.292,0-40.938c0.002-1.101-0.401-1.549-1.368-1.932c-9.622-3.811-19.22-7.687-28.841-11.502
		c-2.987-1.186-5.908-2.552-8.999-3.475c-0.01-0.069-0.027-0.135-0.057-0.199c-0.004-3.271-0.007-6.542-0.01-9.812
		c0.163,0,0.326,0,0.49,0c-0.016,0.214,0.155,0.25,0.298,0.309c3.409,1.407,6.818,2.812,10.228,4.218
		c0.254,0.109,0.509,0.22,0.764,0.33c0.873,0.411,1.736,0.846,2.684,1.075c0.25,0.124,0.502,0.248,0.752,0.372
		c0.886,0.383,1.741,0.843,2.693,1.057c0.171,0.24,0.44,0.266,0.697,0.322c0.882,0.447,1.773,0.871,2.733,1.124
		c0.202,0.195,0.444,0.295,0.724,0.3c0.746,0.448,1.55,0.756,2.381,0.997c0.422,0.188,0.845,0.377,1.266,0.566
		c0.739,0.294,1.478,0.587,2.219,0.881c0.251,0.112,0.502,0.224,0.753,0.335c0.978,0.408,1.955,0.816,2.932,1.225
		c0.19,0.076,0.38,0.152,0.57,0.228c0.926,0.479,1.871,0.908,2.882,1.184c0.289,0.243,0.625,0.376,0.998,0.429
		c0.889,0.379,1.778,0.759,2.668,1.138C113.427,17.192,113.683,17.296,113.938,17.399z"/>
	<path fill-rule="evenodd" clip-rule="evenodd" fill="#647A89" d="M74.446,116.764c-0.003,3.279-0.004,6.556-0.006,9.833
		c-0.082,0-0.164,0-0.246,0c-2.451-1.229-4.903-2.461-7.354-3.691c-0.184-0.106-0.367-0.212-0.55-0.319
		c-0.8-0.461-1.599-0.922-2.399-1.384c-0.313-0.189-0.626-0.377-0.94-0.566c-0.642-0.396-1.285-0.791-1.927-1.187
		c-0.221-0.284-0.528-0.435-0.86-0.544c-0.875-0.578-1.748-1.161-2.623-1.74c-0.174-0.121-0.349-0.245-0.523-0.368
		c-0.671-0.594-1.39-1.119-2.182-1.541c-0.255-0.204-0.509-0.408-0.764-0.614c-0.726-0.543-1.45-1.085-2.176-1.627
		c-0.168-0.138-0.337-0.275-0.506-0.414c-0.694-0.643-1.374-1.302-2.192-1.792c-0.165-0.144-0.33-0.29-0.495-0.435
		c-0.575-0.669-1.23-1.244-1.963-1.734c-0.247-0.238-0.493-0.478-0.74-0.717c-0.43-0.548-0.921-1.033-1.491-1.438
		c-0.324-0.331-0.648-0.661-0.972-0.992c-0.479-0.493-0.958-0.987-1.437-1.481c-0.229-0.249-0.458-0.498-0.687-0.75
		c-0.451-0.76-1.11-1.343-1.698-1.987c-0.272-0.329-0.543-0.659-0.815-0.988c-0.423-0.548-0.848-1.099-1.272-1.646
		c-0.242-0.325-0.484-0.648-0.727-0.974c-0.463-0.672-0.926-1.345-1.391-2.017c-0.163-0.239-0.327-0.479-0.491-0.723
		c-0.434-0.726-0.868-1.454-1.302-2.18c-0.077-0.297-0.212-0.558-0.465-0.743c-0.325-0.863-0.725-1.688-1.248-2.447
		c-0.123-0.253-0.246-0.507-0.369-0.758c-0.38-0.892-0.761-1.782-1.142-2.674c-0.137-0.331-0.274-0.665-0.412-0.997
		c-0.135-0.858-0.484-1.644-0.808-2.438c-0.122-0.416-0.243-0.836-0.365-1.256c-0.208-0.889-0.417-1.778-0.626-2.666
		c-0.086-0.412-0.172-0.823-0.258-1.235c-0.154-1.061-0.307-2.122-0.46-3.183c0.018-0.424,0.06-0.854-0.175-1.242
		c-0.028-1.141-0.056-2.278-0.083-3.417c-0.004-0.412-0.009-0.823-0.014-1.234c0.004-1.225,0.009-2.447,0.014-3.672
		c-0.004-0.411-0.009-0.823-0.014-1.233c0.004-1.225,0.009-2.448,0.014-3.672c-0.004-0.411-0.009-0.823-0.014-1.234
		c0.004-1.224,0.009-2.448,0.014-3.672c-0.004-0.411-0.009-0.823-0.014-1.233c0.004-1.225,0.009-2.449,0.014-3.673
		c-0.004-0.411-0.009-0.823-0.014-1.233c0.004-1.224,0.009-2.449,0.014-3.673c-0.004-0.411-0.009-0.823-0.014-1.233
		c0.004-1.224,0.009-2.448,0.014-3.673c-0.004-0.411-0.009-0.823-0.014-1.233c0.004-1.224,0.009-2.448,0.014-3.672
		c-0.004-0.411-0.009-0.822-0.014-1.233c0.004-1.225,0.009-2.449,0.014-3.673c-0.004-0.411-0.009-0.822-0.014-1.233
		c0.004-1.224,0.009-2.449,0.014-3.673c-0.004-0.411-0.009-0.822-0.014-1.233c0.022-1.224,0.046-2.448,0.068-3.671
		c0.081-0.06,0.163-0.119,0.244-0.178c2.163-0.821,4.312-1.671,6.396-2.68c0.677-0.182,1.328-0.424,1.924-0.799
		c2.177-0.79,4.311-1.681,6.396-2.687c0.688-0.161,1.341-0.414,1.946-0.782c2.163-0.808,4.306-1.666,6.377-2.691
		c0.779-0.16,1.482-0.509,2.188-0.854c2.052-0.858,4.103-1.717,6.154-2.576c0.742-0.309,1.544-0.483,2.206-0.974
		c1.746-0.493,3.361-1.316,5.029-2.005c2.671-1.103,5.317-2.266,7.973-3.404c0.082,0,0.164,0,0.246,0
		c0.003,3.271,0.006,6.542,0.01,9.812c-7.298,2.935-14.591,5.88-21.894,8.799c-5.26,2.101-10.53,4.175-15.804,6.241
		c-1.079,0.422-1.612,0.954-1.604,2.302c0.073,14.095,0.019,28.191,0.08,42.287c0.011,2.414,0.274,4.854,0.909,7.199
		c1.236,4.558,3.186,8.805,5.824,12.732c3.602,5.362,8.084,9.901,13.051,13.988C60.989,109.278,67.482,113.392,74.446,116.764z"/>
	<path fill-rule="evenodd" clip-rule="evenodd" fill="#41BE9B" d="M74.446,116.764c-6.964-3.372-13.457-7.485-19.435-12.401
		c-4.967-4.087-9.45-8.626-13.051-13.988c-2.638-3.928-4.588-8.175-5.824-12.732c-0.635-2.345-0.898-4.785-0.909-7.199
		c-0.061-14.096-0.007-28.191-0.08-42.287c-0.007-1.348,0.526-1.88,1.604-2.302c5.274-2.065,10.544-4.14,15.804-6.241
		c7.303-2.919,14.596-5.865,21.894-8.799c0.029,0.063,0.047,0.13,0.056,0.199c-0.022,0.53-0.063,1.059-0.063,1.59
		c-0.006,16.997-0.008,33.994-0.01,50.99c-0.078,0.029-0.159,0.037-0.24,0.026c-0.225-0.353-0.508-0.647-0.874-0.856
		c-0.19-0.331-0.453-0.592-0.783-0.784c-0.472-0.641-1.029-1.198-1.67-1.669c-0.191-0.331-0.453-0.592-0.783-0.783
		c-0.472-0.641-1.029-1.198-1.67-1.67c-0.191-0.331-0.452-0.592-0.783-0.783c-0.472-0.641-1.029-1.198-1.67-1.67
		c-0.191-0.331-0.452-0.592-0.783-0.783c-0.473-0.641-1.029-1.198-1.67-1.67c-0.502-0.946-0.993-0.895-1.705-0.127
		c-1.354,1.459-2.766,2.871-4.225,4.225c-0.766,0.71-0.823,1.202,0.125,1.704c0.473,0.642,1.029,1.198,1.67,1.67
		c0.191,0.331,0.452,0.592,0.783,0.783c0.473,0.642,1.029,1.198,1.67,1.67c0.191,0.331,0.452,0.592,0.783,0.783
		c0.473,0.642,1.029,1.198,1.67,1.671c0.191,0.33,0.452,0.592,0.783,0.782c0.473,0.642,1.029,1.198,1.67,1.671
		c0.191,0.33,0.452,0.592,0.783,0.781c1.269,1.579,2.814,2.887,4.217,4.335c0.897,0.873,1.795,1.749,2.692,2.622
		c0.006,6.373,0.006,12.744,0.017,19.116c0.013,7.311,0.035,14.622,0.053,21.933C74.482,116.636,74.467,116.699,74.446,116.764z"/>
	<path fill-rule="evenodd" clip-rule="evenodd" fill="#2F968A" d="M74.433,63.592c0.002-16.997,0.004-33.994,0.01-50.99
		c0-0.531,0.041-1.06,0.063-1.59c3.092,0.923,6.013,2.289,9,3.475c9.621,3.816,19.219,7.691,28.841,11.502
		c0.967,0.383,1.37,0.831,1.368,1.932c-0.041,13.646-0.103,27.293,0,40.938c0.068,9.002-3.165,16.784-8.44,23.81
		c-6.187,8.236-14.146,14.486-22.896,19.786c-2.162,1.31-4.353,2.572-6.626,3.687c-0.402,0.195-0.785,0.447-1.261,0.427
		c-0.017-7.311-0.039-14.622-0.052-21.933c-0.011-6.372-0.011-12.743-0.017-19.116c8.211-8.208,16.413-16.424,24.645-24.609
		c0.678-0.673,0.737-1.07,0.017-1.737c-1.439-1.332-2.835-2.717-4.166-4.156c-0.645-0.696-1.002-0.728-1.697-0.026
		c-5.895,5.956-11.831,11.871-17.765,17.788C75.15,63.083,74.936,63.527,74.433,63.592z"/>
</g>
</svg>
