<?xml version="1.0" encoding="utf-8"?>
<!-- Generator: Adobe Illustrator 16.0.0, SVG Export Plug-In . SVG Version: 6.00 Build 0)  -->
<!DOCTYPE svg PUBLIC "-//W3C//DTD SVG 1.1//EN" "http://www.w3.org/Graphics/SVG/1.1/DTD/svg11.dtd">
<svg version="1.1" id="Layer_1" xmlns="http://www.w3.org/2000/svg" xmlns:xlink="http://www.w3.org/1999/xlink" x="0px" y="0px"
	 width="259px" height="128.16px" viewBox="-36 0 259 128.16" enable-background="new -36 0 259 128.16" xml:space="preserve">
<g>
	<path fill="#CCCCCC" d="M1.602,21.297v93.617h-18.758V46.095l-9.35,2.729V29.312L1.602,21.297z"/>
	<path fill="#CCCCCC" d="M45.103,114.914l3.194-10.686c21.372-15.042,44.892-39.317,44.892-49.771c0-4.007-1.626-7.608-4.239-10.221
		s-6.271-4.239-10.279-4.239c-4.007,0-7.607,1.626-10.221,4.239s-4.239,6.214-4.239,10.221H45.451c0-9.176,3.717-17.48,9.757-23.521
		c6.04-6.04,14.345-9.756,23.521-9.756s17.48,3.717,23.521,9.756c6.039,6.04,9.756,14.345,9.756,23.521
		c0,10.977-6.736,21.895-15.796,31.477c-3.427,3.601-6.621,7.027-10.512,10.222h25.901v18.758H45.103z"/>
	<path fill="#CCCCCC" d="M190.933,47.199c0-2.091-0.871-3.949-2.206-5.285c-1.395-1.394-3.253-2.207-5.344-2.207
		c-1.8,0-3.484,0.639-4.762,1.684s-2.207,2.497-2.556,4.24l-18.584-3.949c1.336-6.098,4.704-11.325,9.292-15.042
		s10.396-5.924,16.609-5.924c7.318,0,13.938,2.962,18.759,7.782s7.782,11.441,7.782,18.758c0,5.923-1.917,11.383-5.169,15.796
		c0.232,0.175,0.465,0.349,0.639,0.523c5.75,5.517,9.292,13.183,9.292,21.661c0,8.479-3.542,16.146-9.292,21.662
		c-5.633,5.459-13.415,8.828-21.952,8.828c-7.085,0-13.764-2.382-19.106-6.389c-5.401-4.065-9.408-9.873-11.15-16.726l18.352-4.704
		c0.639,2.497,2.207,4.646,4.298,6.214c2.09,1.568,4.762,2.497,7.665,2.497c3.485,0,6.621-1.335,8.828-3.484
		c2.148-2.032,3.484-4.878,3.484-8.014c0.058-9.061-8.015-17.249-22.707-17.945l3.948-7.725c9.815-1.8,14.055-6.911,14.055-12.37
		L190.933,47.199z"/>
</g>
<g>
	<path d="M-1.408,17.293v93.617h-18.758V42.091l-9.35,2.729V25.308L-1.408,17.293z"/>
	<path d="M42.093,110.91l3.194-10.686c21.372-15.042,44.892-39.317,44.892-49.771c0-4.007-1.626-7.608-4.239-10.221
		s-6.271-4.239-10.279-4.239c-4.007,0-7.607,1.626-10.221,4.239S61.2,46.447,61.2,50.454H42.441c0-9.176,3.717-17.48,9.757-23.521
		c6.04-6.04,14.345-9.756,23.521-9.756s17.48,3.717,23.521,9.756c6.039,6.04,9.756,14.345,9.756,23.521
		c0,10.977-6.736,21.895-15.796,31.477c-3.427,3.601-6.621,7.027-10.512,10.222h25.901v18.758H42.093z"/>
	<path d="M187.923,43.195c0-2.091-0.871-3.949-2.206-5.285c-1.395-1.394-3.253-2.207-5.344-2.207c-1.8,0-3.484,0.639-4.762,1.684
		s-2.207,2.497-2.556,4.24l-18.584-3.949c1.336-6.098,4.704-11.325,9.292-15.042s10.396-5.924,16.609-5.924
		c7.318,0,13.938,2.962,18.759,7.782s7.782,11.441,7.782,18.758c0,5.923-1.917,11.383-5.169,15.796
		c0.232,0.175,0.465,0.349,0.639,0.523c5.75,5.517,9.292,13.183,9.292,21.661c0,8.479-3.542,16.146-9.292,21.662
		c-5.633,5.459-13.415,8.828-21.952,8.828c-7.085,0-13.764-2.382-19.106-6.389c-5.401-4.065-9.408-9.873-11.15-16.726l18.352-4.704
		c0.639,2.497,2.207,4.646,4.298,6.214c2.09,1.568,4.762,2.497,7.665,2.497c3.485,0,6.621-1.335,8.828-3.484
		c2.148-2.032,3.484-4.878,3.484-8.014c0.058-9.061-8.015-17.249-22.707-17.945l3.948-7.725c9.815-1.8,14.055-6.911,14.055-12.37
		L187.923,43.195z"/>
</g>
</svg>
