<?xml version="1.0" encoding="utf-8"?>
<!-- Generator: Adobe Illustrator 16.0.0, SVG Export Plug-In . SVG Version: 6.00 Build 0)  -->
<!DOCTYPE svg PUBLIC "-//W3C//DTD SVG 1.1//EN" "http://www.w3.org/Graphics/SVG/1.1/DTD/svg11.dtd">
<svg version="1.1" id="Layer_1" xmlns="http://www.w3.org/2000/svg" xmlns:xlink="http://www.w3.org/1999/xlink" x="0px" y="0px"
	 width="165px" height="128.16px" viewBox="0 0 165 128.16" enable-background="new 0 0 165 128.16" xml:space="preserve">
<g>
	<path fill="#C6C6C6" d="M91.942,3.931c4.75,0.728,9.547,1.243,14.246,2.221c21.232,4.42,39.361,14.354,53.804,30.706
		c0.476,0.538,0.889,1.132,1.107,1.415c-4.018,4.018-7.927,7.927-11.815,11.815C118.706,11.21,51.019,11.142,20.378,50.09
		c-3.89-3.89-7.799-7.799-11.85-11.849c5.414-6.606,11.954-12.482,19.365-17.386c14.491-9.588,30.426-15.02,47.732-16.464
		c0.707-0.06,1.4-0.303,2.099-0.46C82.464,3.931,87.202,3.931,91.942,3.931z"/>
	<path fill="#C6C6C6" d="M82.646,125.316c-5.865-2.766-8.322-6.215-7.861-11.046c0.463-4.839,4.236-8.692,8.962-9.151
		c4.8-0.465,9.359,2.51,10.756,7.013c1.451,4.688-0.673,9.758-5.051,12.023c-0.798,0.413-1.622,0.772-2.433,1.157
		C85.562,125.316,84.104,125.316,82.646,125.316z"/>
	<path fill="#C6C6C6" d="M44.31,74.532c-4.022-4.069-7.859-7.951-11.704-11.844c23.577-30.687,78.445-32.527,104.42-0.218
		c-3.924,3.92-7.827,7.824-11.847,11.84c-10.469-12.389-24.193-18.38-40.407-18.362C68.657,55.967,55.004,61.911,44.31,74.532z"/>
	<path fill="#C6C6C6" d="M67.328,96.906c-3.987-3.988-7.95-7.955-11.931-11.938c14.658-18.229,45.81-17.017,58.883,0.146
		c-3.927,3.926-7.835,7.83-11.856,11.851c-4.294-5.517-10.326-8.191-17.512-8.202C77.696,88.751,71.611,91.346,67.328,96.906z"/>
</g>
<g>
	<path fill="#00B1FF" d="M87.294,1.979c4.751,0.728,9.546,1.243,14.245,2.222c21.232,4.42,39.362,14.353,53.806,30.705
		c0.476,0.538,0.889,1.132,1.107,1.415c-4.02,4.018-7.927,7.926-11.817,11.815C114.059,9.259,46.371,9.19,15.729,48.138
		c-3.89-3.89-7.799-7.799-11.85-11.849c5.415-6.606,11.955-12.482,19.365-17.386C37.737,9.315,53.671,3.885,70.979,2.44
		c0.707-0.059,1.399-0.303,2.098-0.461C77.816,1.979,82.555,1.979,87.294,1.979z"/>
	<path fill="#00B1FF" d="M77.998,123.364c-5.866-2.766-8.323-6.215-7.861-11.046c0.464-4.838,4.235-8.691,8.962-9.151
		c4.799-0.465,9.36,2.51,10.754,7.013c1.452,4.688-0.671,9.758-5.05,12.025c-0.798,0.411-1.621,0.771-2.433,1.155
		C80.913,123.364,79.456,123.364,77.998,123.364z"/>
	<path fill="#00B1FF" d="M39.663,72.582c-4.023-4.07-7.859-7.953-11.705-11.845c23.577-30.688,78.445-32.528,104.42-0.219
		c-3.923,3.92-7.828,7.825-11.846,11.84c-10.47-12.388-24.193-18.379-40.408-18.362C64.009,54.015,50.356,59.958,39.663,72.582z"/>
	<path fill="#00B1FF" d="M62.68,94.955c-3.986-3.989-7.95-7.955-11.931-11.938C65.407,64.788,96.56,66,109.633,83.162
		c-3.927,3.926-7.836,7.83-11.858,11.852c-4.292-5.518-10.325-8.191-17.51-8.203C73.048,86.8,66.963,89.394,62.68,94.955z"/>
</g>
</svg>
