<?xml version="1.0" encoding="utf-8"?>
<!-- Generator: Adobe Illustrator 16.0.0, SVG Export Plug-In . SVG Version: 6.00 Build 0)  -->
<!DOCTYPE svg PUBLIC "-//W3C//DTD SVG 1.1//EN" "http://www.w3.org/Graphics/SVG/1.1/DTD/svg11.dtd">
<svg version="1.1" xmlns="http://www.w3.org/2000/svg" xmlns:xlink="http://www.w3.org/1999/xlink" x="0px" y="0px"
	 width="153.758px" height="128px" viewBox="-40.742 0 153.758 128" enable-background="new -40.742 0 153.758 128"
	 xml:space="preserve">
<symbol  id="New_Symbol" viewBox="-7.483 -8.131 14.966 16.263">
	<path fill="#FFFFFF" d="M-0.161-2.165c0-1.177-0.954-2.13-2.129-2.13c-1.177,0-2.13,0.953-2.13,2.13s0.954,2.13,2.13,2.13
		C-1.115-0.035-0.161-0.988-0.161-2.165z"/>
	<path fill="#FFFFFF" d="M-4.17,6.528c0-0.886-0.718-1.603-1.604-1.603c-0.885,0-1.604,0.717-1.604,1.603s0.718,1.604,1.604,1.604
		C-4.888,8.132-4.17,7.414-4.17,6.528z"/>
	<path fill="#FFFFFF" d="M5.354-3.342c0-0.391-0.315-0.706-0.705-0.706S3.944-3.732,3.944-3.342c0,0.388,0.315,0.703,0.705,0.703
		S5.354-2.954,5.354-3.342z"/>
	<path fill="#FFFFFF" d="M2.171,0.566c0-0.348-0.281-0.63-0.629-0.63c-0.347,0-0.629,0.282-0.629,0.63
		c0,0.347,0.282,0.629,0.629,0.629C1.89,1.195,2.171,0.913,2.171,0.566z"/>
	<path fill="#FFFFFF" d="M-3.941,1.592c0-0.193-0.159-0.353-0.354-0.353c-0.196,0-0.354,0.159-0.354,0.353
		c0,0.196,0.158,0.354,0.354,0.354C-4.1,1.946-3.941,1.788-3.941,1.592z"/>
	<path fill="#FFFFFF" d="M-6.067-6.199c0-0.391-0.317-0.707-0.708-0.707c-0.391,0-0.708,0.316-0.708,0.707s0.317,0.708,0.708,0.708
		C-6.385-5.491-6.067-5.809-6.067-6.199z"/>
	<path fill="#FFFFFF" d="M-3.045-7.076c0-0.191-0.156-0.348-0.348-0.348c-0.191,0-0.347,0.156-0.347,0.348
		c0,0.193,0.156,0.348,0.347,0.348C-3.202-6.729-3.045-6.883-3.045-7.076z"/>
	<path fill="#FFFFFF" d="M6.021,5.176c0-0.288-0.233-0.521-0.521-0.521c-0.288,0-0.521,0.233-0.521,0.521s0.233,0.521,0.521,0.521
		C5.789,5.697,6.021,5.464,6.021,5.176z"/>
	<path fill="#FFFFFF" d="M7.483-6.775c0-0.748-0.606-1.355-1.356-1.355c-0.749,0-1.356,0.607-1.356,1.355
		c0,0.749,0.607,1.356,1.356,1.356C6.876-5.419,7.483-6.026,7.483-6.775z"/>
	<polygon fill="none" stroke="#FFFFFF" stroke-width="0.1" stroke-miterlimit="10" points="-6.034,6.549 -4.295,1.593 
		-2.291,-2.165 -6.775,-6.199 	"/>
	<polyline fill="none" stroke="#FFFFFF" stroke-width="0.1" stroke-miterlimit="10" points="6.127,-6.775 4.649,-3.343 1.542,0.565 
		5.5,5.176 -5.773,6.528 1.542,0.565 -2.291,-2.165 -3.393,-7.076 6.127,-6.775 -2.291,-2.165 4.649,-3.343 5.5,5.176 	"/>
	<polyline fill="none" stroke="#FFFFFF" stroke-width="0.1" stroke-miterlimit="10" points="6.127,-6.775 5.5,5.176 -4.295,1.593 
		-6.775,-6.199 -3.393,-7.076 	"/>
</symbol>
<g id="Layer_1">
</g>
<g id="Layer_2">
	<g>
		<defs>
			<polygon id="SVGID_1_" points="108.197,68.38 113.698,53.896 108.373,33.004 69.435,6.778 44.826,2.5 21.079,2.5 -15.199,12.006 
				-23.707,20.339 -40.731,52.724 -38.043,72.277 -24.158,79.812 -31.324,85.6 -29.534,91.7 -8.48,109.758 7.647,112.802 
				5.405,127.5 15.704,127.5 24.67,108.995 24.218,103.168 36.649,94.5 58.705,94.5 71.702,80.404 101.714,77.828 			"/>
		</defs>
		<clipPath id="SVGID_2_">
			<use xlink:href="#SVGID_1_"  overflow="visible"/>
		</clipPath>
		<polygon clip-path="url(#SVGID_2_)" fill="#2756D8" points="107.866,69.617 113.293,55.337 108.043,34.726 69.638,7.603 
			45.367,2.123 21.945,2.123 -13.837,12.757 -22.228,21.607 -39.019,53.863 -36.368,73.305 -22.674,80.816 -29.741,86.564 
			-27.975,92.599 -7.209,110.421 8.696,111.544 6.485,124.159 16.642,124.159 25.486,107.795 25.04,101.387 37.301,92.181 
			59.055,92.181 71.874,79.878 101.473,78.136 		"/>
		<g clip-path="url(#SVGID_2_)">
			
				<use xlink:href="#New_Symbol"  width="14.966" height="16.263" x="-7.483" y="-8.131" transform="matrix(1.3587 0 0 -1.3587 -195.9871 -22.2627)" overflow="visible"/>
			
				<use xlink:href="#New_Symbol"  width="14.966" height="16.263" x="-7.483" y="-8.131" transform="matrix(1.3254 0.299 0.299 -1.3254 115.0613 93.4814)" overflow="visible"/>
			
				<use xlink:href="#New_Symbol"  width="14.966" height="16.263" x="-7.483" y="-8.131" transform="matrix(1.303 -0.1379 -0.1379 -1.303 110.5496 115.0381)" overflow="visible"/>
			
				<use xlink:href="#New_Symbol"  width="14.966" height="16.263" x="-7.483" y="-8.131" transform="matrix(1.3596 -0.3247 -0.3247 -1.3596 101.8601 76.9209)" overflow="visible"/>
			
				<use xlink:href="#New_Symbol"  width="14.966" height="16.263" x="-7.483" y="-8.131" transform="matrix(1.3108 0.2588 0.2588 -1.3108 -24.4299 74.208)" overflow="visible"/>
			
				<use xlink:href="#New_Symbol"  width="14.966" height="16.263" x="-7.483" y="-8.131" transform="matrix(1.1647 -0.5507 -0.5507 -1.1647 -33.3552 35.231)" overflow="visible"/>
			
				<use xlink:href="#New_Symbol"  width="14.966" height="16.263" x="-7.483" y="-8.131" transform="matrix(-0.6139 -1.6414 -1.6414 0.6139 27.4592 18.8794)" overflow="visible"/>
			
				<use xlink:href="#New_Symbol"  width="14.966" height="16.263" x="-7.483" y="-8.131" transform="matrix(0.9257 -1.4627 -1.4627 -0.9257 38.1365 -3.9941)" overflow="visible"/>
			
				<use xlink:href="#New_Symbol"  width="14.966" height="16.263" x="-7.483" y="-8.131" transform="matrix(1.0759 0.2463 0.2463 -1.0759 103.4597 30.0884)" overflow="visible"/>
			
				<use xlink:href="#New_Symbol"  width="14.966" height="16.263" x="-7.483" y="-8.131" transform="matrix(0.9039 0.4509 0.4509 -0.9039 67.8689 63.3721)" overflow="visible"/>
			
				<use xlink:href="#New_Symbol"  width="14.966" height="16.263" x="-7.483" y="-8.131" transform="matrix(1.2966 -0.4059 -0.4059 -1.2966 67.7371 -26.4341)" overflow="visible"/>
			
				<use xlink:href="#New_Symbol"  width="14.966" height="16.263" x="-7.483" y="-8.131" transform="matrix(0.9953 -0.9249 -0.9249 -0.9953 1.7175 -29.2168)" overflow="visible"/>
			
				<use xlink:href="#New_Symbol"  width="14.966" height="16.263" x="-7.483" y="-8.131" transform="matrix(1.2311 -0.5748 -0.5748 -1.2311 28.9636 -37.5151)" overflow="visible"/>
			
				<use xlink:href="#New_Symbol"  width="14.966" height="16.263" x="-7.483" y="-8.131" transform="matrix(0.1687 -1.3157 -1.3157 -0.1687 14.9817 -11.0044)" overflow="visible"/>
			
				<use xlink:href="#New_Symbol"  width="14.966" height="16.263" x="-7.483" y="-8.131" transform="matrix(1.3107 -0.3578 -0.3578 -1.3107 47.2898 -31.9238)" overflow="visible"/>
			
				<use xlink:href="#New_Symbol"  width="14.966" height="16.263" x="-7.483" y="-8.131" transform="matrix(0.525 -1.2532 -1.2532 -0.525 -8.7283 -9.5552)" overflow="visible"/>
			
				<use xlink:href="#New_Symbol"  width="14.966" height="16.263" x="-7.483" y="-8.131" transform="matrix(-0.3888 -1.4334 -1.4334 0.3888 -3.5935 15.5747)" overflow="visible"/>
			
				<use xlink:href="#New_Symbol"  width="14.966" height="16.263" x="-7.483" y="-8.131" transform="matrix(1.3557 0.0901 0.0901 -1.3557 -54.1951 34.1401)" overflow="visible"/>
			
				<use xlink:href="#New_Symbol"  width="14.966" height="16.263" x="-7.483" y="-8.131" transform="matrix(0.0364 -0.8933 -0.8933 -0.0364 -22.2087 51.5728)" overflow="visible"/>
			
				<use xlink:href="#New_Symbol"  width="14.966" height="16.263" x="-7.483" y="-8.131" transform="matrix(0.1657 -0.9734 -0.9734 -0.1657 56.7903 33.4512)" overflow="visible"/>
			
				<use xlink:href="#New_Symbol"  width="14.966" height="16.263" x="-7.483" y="-8.131" transform="matrix(-1.2246 -1.0302 -1.0302 1.2246 -3.137 39.7979)" overflow="visible"/>
			
				<use xlink:href="#New_Symbol"  width="14.966" height="16.263" x="-7.483" y="-8.131" transform="matrix(0.9008 -1.0172 -1.0172 -0.9008 -31.3831 7.4673)" overflow="visible"/>
			
				<use xlink:href="#New_Symbol"  width="14.966" height="16.263" x="-7.483" y="-8.131" transform="matrix(0.8376 -1.0698 -1.0698 -0.8376 72.6736 -8.5078)" overflow="visible"/>
			
				<use xlink:href="#New_Symbol"  width="14.966" height="16.263" x="-7.483" y="-8.131" transform="matrix(-0.0576 -1.9089 -1.9089 0.0576 57.741 9.645)" overflow="visible"/>
			
				<use xlink:href="#New_Symbol"  width="14.966" height="16.263" x="-7.483" y="-8.131" transform="matrix(1.1758 -0.6809 -0.6809 -1.1758 92.115 1.4062)" overflow="visible"/>
			
				<use xlink:href="#New_Symbol"  width="14.966" height="16.263" x="-7.483" y="-8.131" transform="matrix(1.3016 -0.3897 -0.3897 -1.3016 112.3972 13.6367)" overflow="visible"/>
			
				<use xlink:href="#New_Symbol"  width="14.966" height="16.263" x="-7.483" y="-8.131" transform="matrix(1.3169 0.3344 0.3344 -1.3169 139.4343 23.146)" overflow="visible"/>
			
				<use xlink:href="#New_Symbol"  width="14.966" height="16.263" x="-7.483" y="-8.131" transform="matrix(1.3464 0.1827 0.1827 -1.3464 146.1082 52.7134)" overflow="visible"/>
			
				<use xlink:href="#New_Symbol"  width="14.966" height="16.263" x="-7.483" y="-8.131" transform="matrix(0.9137 -1.0056 -1.0056 -0.9137 138.3826 83.3984)" overflow="visible"/>
			
				<use xlink:href="#New_Symbol"  width="14.966" height="16.263" x="-7.483" y="-8.131" transform="matrix(0.6459 0.2966 0.2966 -0.6459 82.8142 70.9854)" overflow="visible"/>
			
				<use xlink:href="#New_Symbol"  width="14.966" height="16.263" x="-7.483" y="-8.131" transform="matrix(-0.2905 1.6738 1.6738 0.2905 3.0496 67.3184)" overflow="visible"/>
			
				<use xlink:href="#New_Symbol"  width="14.966" height="16.263" x="-7.483" y="-8.131" transform="matrix(1.1417 0.1828 0.1828 -1.1417 85.5955 47.4414)" overflow="visible"/>
			
				<use xlink:href="#New_Symbol"  width="14.966" height="16.263" x="-7.483" y="-8.131" transform="matrix(1.8326 -0.2828 -0.2828 -1.8326 111.1179 53.3062)" overflow="visible"/>
			
				<use xlink:href="#New_Symbol"  width="14.966" height="16.263" x="-7.483" y="-8.131" transform="matrix(1.1885 0.6584 0.6584 -1.1885 43.3093 127.8672)" overflow="visible"/>
			
				<use xlink:href="#New_Symbol"  width="14.966" height="16.263" x="-7.483" y="-8.131" transform="matrix(1.0066 0.9126 0.9126 -1.0066 -0.3425 158.7549)" overflow="visible"/>
			
				<use xlink:href="#New_Symbol"  width="14.966" height="16.263" x="-7.483" y="-8.131" transform="matrix(0.9431 0.9781 0.9781 -0.9431 -22.9226 140.0645)" overflow="visible"/>
			
				<use xlink:href="#New_Symbol"  width="14.966" height="16.263" x="-7.483" y="-8.131" transform="matrix(1.0673 0.8408 0.8408 -1.0673 25.571 156.4609)" overflow="visible"/>
			
				<use xlink:href="#New_Symbol"  width="14.966" height="16.263" x="-7.483" y="-8.131" transform="matrix(1.1455 0.7307 0.7307 -1.1455 48.1565 152.2451)" overflow="visible"/>
			
				<use xlink:href="#New_Symbol"  width="14.966" height="16.263" x="-7.483" y="-8.131" transform="matrix(1.1356 0.7459 0.7459 -1.1356 21.4758 126.9473)" overflow="visible"/>
			
				<use xlink:href="#New_Symbol"  width="14.966" height="16.263" x="-7.483" y="-8.131" transform="matrix(1.2293 0.5787 0.5787 -1.2293 72.1345 133.6416)" overflow="visible"/>
			
				<use xlink:href="#New_Symbol"  width="14.966" height="16.263" x="-7.483" y="-8.131" transform="matrix(1.0707 0.0183 0.0183 -1.0707 25.946 106.4004)" overflow="visible"/>
			
				<use xlink:href="#New_Symbol"  width="14.966" height="16.263" x="-7.483" y="-8.131" transform="matrix(1.278 0.4612 0.4612 -1.278 47.3328 101.3984)" overflow="visible"/>
			
				<use xlink:href="#New_Symbol"  width="14.966" height="16.263" x="-7.483" y="-8.131" transform="matrix(1.2987 0.3994 0.3994 -1.2987 91.3494 114.9521)" overflow="visible"/>
			
				<use xlink:href="#New_Symbol"  width="14.966" height="16.263" x="-7.483" y="-8.131" transform="matrix(1.0819 0.8219 0.8219 -1.0819 -3.3015 136.6611)" overflow="visible"/>
			
				<use xlink:href="#New_Symbol"  width="14.966" height="16.263" x="-7.483" y="-8.131" transform="matrix(1.2321 0.5727 0.5727 -1.2321 65.0125 115.8008)" overflow="visible"/>
			
				<use xlink:href="#New_Symbol"  width="14.966" height="16.263" x="-7.483" y="-8.131" transform="matrix(1.3102 0.3614 0.3614 -1.3102 -20.9666 99.3633)" overflow="visible"/>
			
				<use xlink:href="#New_Symbol"  width="14.966" height="16.263" x="-7.483" y="-8.131" transform="matrix(1.3204 0.3204 0.3204 -1.3204 -43.4954 105.4395)" overflow="visible"/>
			
				<use xlink:href="#New_Symbol"  width="14.966" height="16.263" x="-7.483" y="-8.131" transform="matrix(2.2713 -0.0628 -0.0628 -2.2713 2.2981 102.6865)" overflow="visible"/>
			
				<use xlink:href="#New_Symbol"  width="14.966" height="16.263" x="-7.483" y="-8.131" transform="matrix(1.1071 0.5647 0.5647 -1.1071 85.7849 95.4238)" overflow="visible"/>
			
				<use xlink:href="#New_Symbol"  width="14.966" height="16.263" x="-7.483" y="-8.131" transform="matrix(1.142 0.4825 0.4825 -1.142 67.9636 89.9785)" overflow="visible"/>
			
				<use xlink:href="#New_Symbol"  width="14.966" height="16.263" x="-7.483" y="-8.131" transform="matrix(1.2049 -0.0133 -0.0133 -1.2049 21.8977 85.3408)" overflow="visible"/>
			
				<use xlink:href="#New_Symbol"  width="14.966" height="16.263" x="-7.483" y="-8.131" transform="matrix(1.2713 0.4793 0.4793 -1.2713 -48.6379 80.0586)" overflow="visible"/>
			
				<use xlink:href="#New_Symbol"  width="14.966" height="16.263" x="-7.483" y="-8.131" transform="matrix(1.1432 -0.4671 -0.4671 -1.1432 82.4197 26.2266)" overflow="visible"/>
			
				<use xlink:href="#New_Symbol"  width="14.966" height="16.263" x="-7.483" y="-8.131" transform="matrix(-1.4995 2.4427 2.4427 1.4995 26.7229 51.395)" overflow="visible"/>
			
				<use xlink:href="#New_Symbol"  width="14.966" height="16.263" x="-7.483" y="-8.131" transform="matrix(0.597 1.2205 1.2205 -0.597 45.3884 72.124)" overflow="visible"/>
			
				<use xlink:href="#New_Symbol"  width="14.966" height="16.263" x="-7.483" y="-8.131" transform="matrix(-0.2054 -0.9808 -0.9808 0.2054 63.3699 47.7119)" overflow="visible"/>
			
				<use xlink:href="#New_Symbol"  width="14.966" height="16.263" x="-7.483" y="-8.131" transform="matrix(1.1575 0.0626 0.0626 -1.1575 -47.4768 61.1353)" overflow="visible"/>
		</g>
	</g>
</g>
</svg>
