<?xml version="1.0" encoding="utf-8"?>
<!-- Generator: Adobe Illustrator 16.0.0, SVG Export Plug-In . SVG Version: 6.00 Build 0)  -->
<!DOCTYPE svg PUBLIC "-//W3C//DTD SVG 1.1//EN" "http://www.w3.org/Graphics/SVG/1.1/DTD/svg11.dtd">
<svg version="1.1" id="Layer_1" xmlns="http://www.w3.org/2000/svg" xmlns:xlink="http://www.w3.org/1999/xlink" x="0px" y="0px"
	 width="113.015px" height="128px" viewBox="0 0 113.015 128" enable-background="new 0 0 113.015 128" xml:space="preserve">
<g>
	<path fill-rule="evenodd" clip-rule="evenodd" fill="#9B9B9B" d="M75.453,41.428c0,7.46,0.18,14.926-0.045,22.379
		c-0.29,9.603-8.629,17.373-18.237,17.334c-9.367-0.038-17.821-7.699-17.991-17.053c-0.275-15.161-0.288-30.335,0.017-45.495
		C39.385,9.245,47.9,1.754,57.382,1.806c9.486,0.051,17.53,7.621,18.059,16.996c0.019,0.328,0.041,0.655,0.041,0.983
		c0.003,7.215,0.002,14.429,0.002,21.644C75.475,41.428,75.463,41.428,75.453,41.428z"/>
	<path fill-rule="evenodd" clip-rule="evenodd" fill="#9B9B9B" d="M31.21,51.437c0,4.814-0.005,9.401,0.001,13.988
		c0.02,13.909,9.225,23.195,23.088,23.138c4.164-0.018,8.436,0.117,12.468-0.727c9.805-2.054,16.456-10.932,16.56-21.373
		c0.05-4.979,0.009-9.959,0.009-15.099c3.998,0,7.721,0,11.694,0c-0.118,11.058,1.559,22.239-4.688,32.331
		c-5.631,9.098-13.65,14.609-24.285,16.217c-0.885,0.134-1.758,0.348-2.917,0.58c0,4.192-0.055,8.354,0.084,12.508
		c0.015,0.423,1.192,1.141,1.842,1.155c4.671,0.099,9.345,0.052,14.017,0.051c0.893,0,1.785,0,2.878,0c0,3.927,0,7.65,0,11.545
		c-16.453,0-32.868,0-49.399,0c0-3.82,0-7.545,0-11.545c5.478,0,10.793-0.148,16.092,0.067c2.425,0.099,2.916-0.776,2.803-2.921
		c-0.151-2.862-0.176-5.746,0.01-8.604c0.127-1.95-0.713-2.591-2.435-2.8c-9.835-1.193-17.555-6.002-23.328-13.952
		c-4.061-5.593-5.994-11.978-6.208-18.837c-0.161-5.156-0.032-10.323-0.032-15.723C23.398,51.437,27.231,51.437,31.21,51.437z"/>
	<circle fill="#9B9B9B" cx="33.197" cy="119.923" r="5.799"/>
	<circle fill="#9B9B9B" cx="81.992" cy="119.955" r="5.768"/>
	<circle fill="#9B9B9B" cx="89.173" cy="52.352" r="5.896"/>
	<circle fill="#9B9B9B" cx="25.408" cy="51.775" r="5.895"/>
</g>
</svg>
