<?xml version="1.0" encoding="utf-8"?>
<!-- Generator: Adobe Illustrator 16.0.0, SVG Export Plug-In . SVG Version: 6.00 Build 0)  -->
<!DOCTYPE svg PUBLIC "-//W3C//DTD SVG 1.1//EN" "http://www.w3.org/Graphics/SVG/1.1/DTD/svg11.dtd">
<svg version="1.1" id="Layer_1" xmlns="http://www.w3.org/2000/svg" xmlns:xlink="http://www.w3.org/1999/xlink" x="0px" y="0px"
	 width="169px" height="128.16px" viewBox="0 0 169 128.16" enable-background="new 0 0 169 128.16" xml:space="preserve">
<path fill="#D3D3D3" d="M65.364,1.806c1.624,0,3.248,0,4.872,0c0.385,0.354,0.844,0.292,1.303,0.231
	c6.768,0.633,13.145,2.515,19.03,5.964c7.466,4.376,13.192,10.421,17.254,18.05c0.419,0.787,0.735,1.462,1.785,0.708
	c4.904-3.523,10.42-4.36,16.322-3.894c13.011,1.028,23.117,13.446,21.427,26.479c-0.407,3.134-0.354,3.193,2.341,4.68
	c7.688,4.239,13.082,10.481,16.34,18.628c1.131,2.826,1.5,5.827,2.287,8.73c0,3.031,0,6.062,0,9.094
	c-0.437,0.104-0.562,0.416-0.641,0.826c-1.085,5.621-3.326,10.706-6.971,15.16c-6.946,8.491-15.856,13.168-26.852,13.207
	c-30.144,0.109-60.288,0.043-90.432,0.029c-2.428-0.001-4.848-0.001-7.284-0.252c-6.507-0.67-12.442-2.841-17.719-6.627
	C10.137,106.873,4.793,98.92,2.741,88.851c-0.102-0.499,0.026-1.142-0.713-1.298c0-3.248,0-6.496,0-9.744
	c0.102-0.301,0.265-0.597,0.294-0.904c0.417-4.303,1.647-8.38,3.554-12.235c3.401-6.876,8.425-12.269,15.142-16.01
	c1.256-0.699,1.933-1.443,1.852-3.005c-0.086-1.658,0.116-3.349,0.355-5.002c3.029-20.891,19.668-36.605,40.835-38.6
	C64.521,2.108,64.981,2.162,65.364,1.806z M77.479,78.176c0.028,0.002-0.179-0.039-0.386-0.039
	c-8.388-0.004-16.776,0.025-25.165-0.034c-1.343-0.009-1.465,0.575-1.46,1.657c0.031,8.171,0.013,16.343,0.029,24.515
	c0.001,0.379-0.235,0.864,0.011,1.002c3.083-2.938,6.137-5.764,9.08-8.702c0.911-0.91,1.393-0.863,2.315-0.018
	c12.996,11.909,31.576,12.437,45.199,1.237c5.708-4.693,9.636-10.627,11.595-17.8c0.506-1.85,0.491-1.857-1.483-1.86
	c-2.598-0.005-5.198,0.074-7.792-0.033c-1.291-0.054-1.843,0.369-2.328,1.585C101,94.916,82.16,99.611,69.656,89.089
	c-1.032-0.868-1.278-1.376-0.155-2.481C72.27,83.883,74.855,80.973,77.479,78.176z M119.865,36.968
	c-0.862,0.165-1.153,0.661-1.534,1.021c-2.556,2.417-5.114,4.832-7.633,7.288c-0.685,0.667-1.13,0.881-1.987,0.124
	c-8.706-7.692-18.871-10.128-30.198-8.193c-12.741,2.177-24.025,12.847-26.979,25.418c-0.289,1.232-0.032,1.655,1.267,1.625
	c2.868-0.067,5.738-0.06,8.605,0c0.995,0.021,1.404-0.385,1.731-1.271c1.019-2.763,2.529-5.249,4.421-7.516
	c8.483-10.169,23.361-11.351,33.36-2.661c0.881,0.766,1.085,1.286,0.136,2.171c-1.463,1.364-2.809,2.854-4.189,4.304
	c-1.469,1.543-2.919,3.103-4.472,4.756c0.394,0.105,0.542,0.179,0.69,0.18c8.498,0.008,16.996-0.011,25.494,0.035
	c1.342,0.008,1.296-0.745,1.295-1.667c-0.012-7.199-0.007-14.398-0.007-21.597C119.865,39.7,119.865,38.412,119.865,36.968z"/>
<path fill-rule="evenodd" clip-rule="evenodd" fill="#95A5A6" d="M2.028,87.553c0.739,0.156,0.611,0.799,0.713,1.298
	c2.052,10.069,7.396,18.022,15.685,23.969c5.277,3.786,11.212,5.957,17.719,6.627c2.437,0.251,4.856,0.251,7.284,0.252
	c30.145,0.014,60.289,0.08,90.432-0.029c10.995-0.039,19.905-4.716,26.852-13.207c3.645-4.454,5.886-9.539,6.971-15.16
	c0.079-0.41,0.204-0.723,0.641-0.826c0,1.841,0,3.681,0,5.521c-0.559,0.608-0.463,1.417-0.59,2.132
	c-2.816,15.967-17.104,28.349-33.304,28.41c-31.658,0.119-63.318,0.127-94.976,0c-17.545-0.07-32.74-12.713-36.533-29.918
	c-0.262-1.187-0.193-2.468-0.894-3.547C2.028,91.233,2.028,89.394,2.028,87.553z"/>
<path fill-rule="evenodd" clip-rule="evenodd" fill="#FCFCFC" d="M64.062,2.052c0.001-0.082,0.002-0.164,0.003-0.246
	c0.433,0,0.866,0,1.299,0C64.981,2.162,64.521,2.108,64.062,2.052z"/>
<path fill-rule="evenodd" clip-rule="evenodd" fill="#FCFCFC" d="M71.535,1.806c0.001,0.078,0.003,0.155,0.004,0.232
	c-0.459,0.06-0.918,0.122-1.303-0.232C70.668,1.806,71.102,1.806,71.535,1.806z"/>
<path fill-rule="evenodd" clip-rule="evenodd" fill="#2AC9B8" d="M77.479,78.176c-2.624,2.797-5.209,5.707-7.978,8.432
	c-1.124,1.105-0.877,1.613,0.155,2.481C82.16,99.611,101,94.916,107.093,79.686c0.485-1.216,1.037-1.639,2.328-1.585
	c2.594,0.107,5.194,0.028,7.792,0.033c1.975,0.003,1.989,0.011,1.483,1.86c-1.959,7.173-5.887,13.106-11.595,17.8
	c-13.623,11.199-32.203,10.672-45.199-1.237c-0.922-0.846-1.404-0.893-2.315,0.018c-2.943,2.938-5.998,5.765-9.08,8.702
	c-0.246-0.138-0.01-0.623-0.011-1.002c-0.016-8.172,0.002-16.344-0.029-24.515c-0.004-1.082,0.118-1.666,1.46-1.657
	c8.388,0.06,16.776,0.03,25.165,0.034C77.3,78.137,77.507,78.178,77.479,78.176z"/>
<path fill-rule="evenodd" clip-rule="evenodd" fill="#2AC9B8" d="M119.865,36.968c0,1.444,0,2.731,0,4.019
	c0,7.199-0.005,14.398,0.007,21.597c0.001,0.922,0.047,1.675-1.295,1.667c-8.498-0.046-16.996-0.027-25.494-0.035
	c-0.148,0-0.297-0.075-0.69-0.18c1.553-1.653,3.003-3.213,4.472-4.756c1.381-1.45,2.727-2.94,4.189-4.304
	c0.949-0.886,0.745-1.405-0.136-2.171c-9.999-8.69-24.877-7.509-33.36,2.661c-1.892,2.268-3.402,4.753-4.421,7.516
	c-0.327,0.885-0.736,1.292-1.731,1.271c-2.868-0.061-5.738-0.068-8.605,0c-1.299,0.03-1.556-0.393-1.267-1.625
	c2.954-12.571,14.238-23.242,26.979-25.418c11.327-1.936,21.492,0.5,30.198,8.193c0.857,0.757,1.303,0.543,1.987-0.124
	c2.519-2.456,5.077-4.871,7.633-7.288C118.711,37.629,119.002,37.133,119.865,36.968z"/>
</svg>
