<?xml version="1.0" encoding="utf-8"?>
<!-- Generator: Adobe Illustrator 16.0.0, SVG Export Plug-In . SVG Version: 6.00 Build 0)  -->
<!DOCTYPE svg PUBLIC "-//W3C//DTD SVG 1.1//EN" "http://www.w3.org/Graphics/SVG/1.1/DTD/svg11.dtd">
<svg version="1.1" id="Layer_1" xmlns="http://www.w3.org/2000/svg" xmlns:xlink="http://www.w3.org/1999/xlink" x="0px" y="0px"
	 width="165px" height="128.16px" viewBox="0 0 165 128.16" enable-background="new 0 0 165 128.16" xml:space="preserve">
<path fill="#00B1FF" d="M89.895,1.979c4.898,0.751,9.844,1.282,14.689,2.291c21.895,4.558,40.589,14.801,55.482,31.662
	c0.49,0.555,0.916,1.168,1.142,1.459c-4.144,4.143-8.174,8.174-12.185,12.184C117.493,9.486,47.696,9.415,16.099,49.577
	c-4.011-4.011-8.042-8.042-12.219-12.218c5.583-6.812,12.327-12.871,19.969-17.928C38.792,9.544,55.223,3.944,73.07,2.454
	c0.729-0.061,1.443-0.312,2.164-0.475C80.121,1.979,85.007,1.979,89.895,1.979z"/>
<path fill="#00B1FF" d="M80.308,127.148c-6.048-2.851-8.582-6.409-8.106-11.389c0.478-4.99,4.368-8.963,9.242-9.437
	c4.949-0.48,9.652,2.587,11.09,7.231c1.497,4.834-0.692,10.062-5.208,12.399c-0.822,0.425-1.672,0.796-2.508,1.192
	C83.314,127.148,81.812,127.148,80.308,127.148z"/>
<path fill="#00B1FF" d="M40.778,74.782c-4.148-4.197-8.104-8.2-12.069-12.213c24.312-31.644,80.891-33.542,107.675-0.225
	c-4.045,4.042-8.071,8.068-12.215,12.209C113.373,61.778,99.221,55.6,82.501,55.618C65.884,55.637,51.805,61.766,40.778,74.782z"/>
<path fill="#00B1FF" d="M64.513,97.854c-4.111-4.114-8.198-8.203-12.303-12.311c15.115-18.797,47.238-17.547,60.72,0.15
	c-4.05,4.048-8.08,8.074-12.228,12.221c-4.427-5.689-10.647-8.447-18.056-8.459C75.204,89.443,68.929,92.119,64.513,97.854z"/>
</svg>
